<?xml version="1.0" encoding="UTF-8"?>
<svg xmlns="http://www.w3.org/2000/svg" version="1.1" viewBox="0 0 779 196">
  <!-- Generator: Adobe Illustrator 29.5.1, SVG Export Plug-In . SVG Version: 2.1.0 Build 141)  -->
  <defs>
    <style>
      .st0 {
        fill: #6ba7d6;
      }

      .st1 {
        fill: #1f79b4;
      }

      .st2 {
        fill: #e07329;
      }

      .st3 {
        fill: #fafbfc;
      }

      .st4 {
        fill: none;
        stroke: #fff;
        stroke-linecap: round;
        stroke-linejoin: round;
        stroke-width: 2px;
      }

      .st5 {
        fill: #fff;
      }
    </style>
  </defs>
  <g id="Layer_2">
    <rect class="st0" x="-3.64" y="-57.94" width="789.86" height="337.32"/>
  </g>
  <g id="Layer_1">
    <rect class="st1" x="5.67" y="-46.28" width="769.22" height="314.45"/>
    <path class="st4" d="M90.18,31.83c0-1.4,0-2.09-.17-2.66-.39-1.28-1.4-2.28-2.68-2.67-.57-.17-1.27-.17-2.68-.17h-5.03c-1.4,0-2.1,0-2.68.17-1.29.39-2.29,1.39-2.68,2.67-.17.57-.17,1.27-.17,2.66M86.66,18.33c0,2.49-2.03,4.5-4.52,4.5s-4.52-2.01-4.52-4.5,2.03-4.5,4.52-4.5,4.52,2.01,4.52,4.5Z"/>
    <path class="st4" d="M246.24,31.83c0-1.4,0-2.09-.17-2.66-.39-1.28-1.4-2.28-2.68-2.67-.57-.17-1.27-.17-2.68-.17h-5.03c-1.4,0-2.1,0-2.67.17-1.29.39-2.29,1.39-2.68,2.67-.17.57-.17,1.27-.17,2.66M242.73,18.33c0,2.49-2.02,4.5-4.52,4.5s-4.52-2.01-4.52-4.5,2.02-4.5,4.52-4.5,4.52,2.01,4.52,4.5Z"/>
    <path class="st4" d="M194.22,31.83c0-1.4,0-2.09-.17-2.66-.39-1.28-1.4-2.28-2.68-2.67-.57-.17-1.27-.17-2.67-.17h-5.03c-1.4,0-2.1,0-2.68.17-1.29.39-2.29,1.39-2.68,2.67-.17.57-.17,1.27-.17,2.66M190.71,18.33c0,2.49-2.03,4.5-4.52,4.5s-4.52-2.01-4.52-4.5,2.02-4.5,4.52-4.5,4.52,2.01,4.52,4.5Z"/>
    <path class="st4" d="M38.16,31.83c0-1.4,0-2.09-.17-2.66-.39-1.28-1.4-2.28-2.68-2.67-.57-.17-1.27-.17-2.68-.17h-5.03c-1.4,0-2.1,0-2.68.17-1.29.39-2.29,1.39-2.68,2.67-.17.57-.17,1.27-.17,2.66M34.64,18.33c0,2.49-2.03,4.5-4.52,4.5s-4.52-2.01-4.52-4.5,2.03-4.5,4.52-4.5,4.52,2.01,4.52,4.5Z"/>
    <path class="st4" d="M64.17,31.83c0-1.4,0-2.09-.17-2.66-.39-1.28-1.4-2.28-2.68-2.67-.57-.17-1.27-.17-2.68-.17h-5.03c-1.4,0-2.1,0-2.68.17-1.29.39-2.29,1.39-2.68,2.67-.17.57-.17,1.27-.17,2.66M60.65,18.33c0,2.49-2.03,4.5-4.52,4.5s-4.52-2.01-4.52-4.5,2.03-4.5,4.52-4.5,4.52,2.01,4.52,4.5Z"/>
    <path class="st4" d="M142.2,31.83c0-1.4,0-2.09-.17-2.66-.39-1.28-1.4-2.28-2.68-2.67-.57-.17-1.27-.17-2.68-.17h-5.03c-1.4,0-2.1,0-2.68.17-1.29.39-2.29,1.39-2.68,2.67-.17.57-.17,1.27-.17,2.66M138.68,18.33c0,2.49-2.03,4.5-4.52,4.5s-4.52-2.01-4.52-4.5,2.03-4.5,4.52-4.5,4.52,2.01,4.52,4.5Z"/>
    <path class="st4" d="M116.19,31.83c0-1.4,0-2.09-.17-2.66-.39-1.28-1.39-2.28-2.68-2.67-.57-.17-1.27-.17-2.67-.17h-5.03c-1.4,0-2.1,0-2.68.17-1.28.39-2.29,1.39-2.68,2.67-.17.57-.17,1.27-.17,2.66M112.67,18.33c0,2.49-2.03,4.5-4.52,4.5s-4.52-2.01-4.52-4.5,2.03-4.5,4.52-4.5,4.52,2.01,4.52,4.5Z"/>
    <path class="st4" d="M168.21,31.83c0-1.4,0-2.09-.17-2.66-.39-1.28-1.39-2.28-2.68-2.67-.57-.17-1.27-.17-2.68-.17h-5.03c-1.4,0-2.1,0-2.68.17-1.29.39-2.29,1.39-2.68,2.67-.17.57-.17,1.27-.17,2.66M164.7,18.33c0,2.49-2.03,4.5-4.52,4.5s-4.52-2.01-4.52-4.5,2.03-4.5,4.52-4.5,4.52,2.01,4.52,4.5Z"/>
    <path class="st4" d="M220.23,31.83c0-1.4,0-2.09-.17-2.66-.39-1.28-1.4-2.28-2.68-2.67-.57-.17-1.27-.17-2.68-.17h-5.03c-1.4,0-2.1,0-2.68.17-1.29.39-2.29,1.39-2.68,2.67-.17.57-.17,1.27-.17,2.66M216.72,18.33c0,2.49-2.03,4.5-4.52,4.5s-4.52-2.01-4.52-4.5,2.03-4.5,4.52-4.5,4.52,2.01,4.52,4.5Z"/>
    <path class="st4" d="M272.26,31.83c0-1.4,0-2.09-.17-2.66-.39-1.28-1.4-2.28-2.68-2.67-.57-.17-1.27-.17-2.67-.17h-5.03c-1.4,0-2.11,0-2.68.17-1.28.39-2.29,1.39-2.68,2.67-.17.57-.17,1.27-.17,2.66M268.74,18.33c0,2.49-2.03,4.5-4.52,4.5s-4.52-2.01-4.52-4.5,2.02-4.5,4.52-4.5,4.52,2.01,4.52,4.5Z"/>
    <path class="st4" d="M298.27,31.83c0-1.4,0-2.09-.17-2.66-.39-1.28-1.4-2.28-2.68-2.67-.57-.17-1.27-.17-2.68-.17h-5.03c-1.4,0-2.1,0-2.67.17-1.29.39-2.29,1.39-2.68,2.67-.17.57-.17,1.27-.17,2.66M294.75,18.33c0,2.49-2.03,4.5-4.52,4.5s-4.52-2.01-4.52-4.5,2.03-4.5,4.52-4.5,4.52,2.01,4.52,4.5Z"/>
    <path class="st4" d="M532.36,31.83c0-1.4,0-2.09-.17-2.66-.39-1.28-1.4-2.28-2.68-2.67-.57-.17-1.27-.17-2.67-.17h-5.03c-1.4,0-2.11,0-2.67.17-1.29.39-2.29,1.39-2.68,2.67-.17.57-.17,1.27-.17,2.66M528.84,18.33c0,2.49-2.03,4.5-4.52,4.5s-4.52-2.01-4.52-4.5,2.03-4.5,4.52-4.5,4.52,2.01,4.52,4.5Z"/>
    <path class="st4" d="M324.28,31.83c0-1.4,0-2.09-.17-2.66-.39-1.28-1.4-2.28-2.68-2.67-.57-.17-1.27-.17-2.67-.17h-5.03c-1.4,0-2.1,0-2.67.17-1.29.39-2.29,1.39-2.68,2.67-.17.57-.17,1.27-.17,2.66M320.76,18.33c0,2.49-2.02,4.5-4.52,4.5s-4.52-2.01-4.52-4.5,2.02-4.5,4.52-4.5,4.52,2.01,4.52,4.5Z"/>
    <path class="st4" d="M350.29,31.83c0-1.4,0-2.09-.17-2.66-.39-1.28-1.4-2.28-2.68-2.67-.57-.17-1.27-.17-2.68-.17h-5.03c-1.4,0-2.1,0-2.67.17-1.29.39-2.29,1.39-2.68,2.67-.17.57-.17,1.27-.17,2.66M346.77,18.33c0,2.49-2.03,4.5-4.52,4.5s-4.52-2.01-4.52-4.5,2.03-4.5,4.52-4.5,4.52,2.01,4.52,4.5Z"/>
    <path class="st4" d="M376.3,31.83c0-1.4,0-2.09-.17-2.66-.39-1.28-1.4-2.28-2.68-2.67-.57-.17-1.27-.17-2.67-.17h-5.03c-1.4,0-2.1,0-2.67.17-1.29.39-2.29,1.39-2.68,2.67-.17.57-.17,1.27-.17,2.66M372.78,18.33c0,2.49-2.03,4.5-4.52,4.5s-4.52-2.01-4.52-4.5,2.03-4.5,4.52-4.5,4.52,2.01,4.52,4.5Z"/>
    <path class="st4" d="M402.31,31.83c0-1.4,0-2.09-.17-2.66-.39-1.28-1.4-2.28-2.68-2.67-.57-.17-1.27-.17-2.67-.17h-5.03c-1.4,0-2.11,0-2.68.17-1.29.39-2.29,1.39-2.68,2.67-.17.57-.17,1.27-.17,2.66M398.79,18.33c0,2.49-2.03,4.5-4.52,4.5s-4.52-2.01-4.52-4.5,2.02-4.5,4.52-4.5,4.52,2.01,4.52,4.5Z"/>
    <path class="st4" d="M428.32,31.83c0-1.4,0-2.09-.17-2.66-.39-1.28-1.4-2.28-2.68-2.67-.57-.17-1.27-.17-2.68-.17h-5.03c-1.4,0-2.1,0-2.67.17-1.29.39-2.29,1.39-2.68,2.67-.17.57-.17,1.27-.17,2.66M424.8,18.33c0,2.49-2.03,4.5-4.52,4.5s-4.52-2.01-4.52-4.5,2.03-4.5,4.52-4.5,4.52,2.01,4.52,4.5Z"/>
    <path class="st4" d="M454.33,31.83c0-1.4,0-2.09-.17-2.66-.39-1.28-1.4-2.28-2.68-2.67-.57-.17-1.27-.17-2.67-.17h-5.03c-1.4,0-2.1,0-2.68.17-1.28.39-2.29,1.39-2.68,2.67-.17.57-.17,1.27-.17,2.66M450.81,18.33c0,2.49-2.02,4.5-4.52,4.5s-4.52-2.01-4.52-4.5,2.02-4.5,4.52-4.5,4.52,2.01,4.52,4.5Z"/>
    <path class="st4" d="M480.34,31.83c0-1.4,0-2.09-.17-2.66-.39-1.28-1.4-2.28-2.68-2.67-.57-.17-1.27-.17-2.68-.17h-5.03c-1.4,0-2.1,0-2.67.17-1.29.39-2.29,1.39-2.68,2.67-.17.57-.17,1.27-.17,2.66M476.82,18.33c0,2.49-2.03,4.5-4.52,4.5s-4.52-2.01-4.52-4.5,2.03-4.5,4.52-4.5,4.52,2.01,4.52,4.5Z"/>
    <path class="st4" d="M506.35,31.83c0-1.4,0-2.09-.17-2.66-.39-1.28-1.4-2.28-2.68-2.67-.57-.17-1.27-.17-2.67-.17h-5.03c-1.4,0-2.1,0-2.67.17-1.29.39-2.29,1.39-2.68,2.67-.17.57-.17,1.27-.17,2.66M502.83,18.33c0,2.49-2.02,4.5-4.52,4.5s-4.52-2.01-4.52-4.5,2.03-4.5,4.52-4.5,4.52,2.01,4.52,4.5Z"/>
    <path class="st4" d="M90.18,53.66c0-1.4,0-2.09-.17-2.66-.39-1.28-1.4-2.28-2.68-2.67-.57-.17-1.27-.17-2.68-.17h-5.03c-1.4,0-2.1,0-2.68.17-1.29.39-2.29,1.39-2.68,2.67-.17.57-.17,1.27-.17,2.66M86.66,40.16c0,2.49-2.03,4.5-4.52,4.5s-4.52-2.01-4.52-4.5,2.03-4.5,4.52-4.5,4.52,2.01,4.52,4.5Z"/>
    <path class="st4" d="M246.24,53.66c0-1.4,0-2.09-.17-2.66-.39-1.28-1.4-2.28-2.68-2.67-.57-.17-1.27-.17-2.68-.17h-5.03c-1.4,0-2.1,0-2.67.17-1.29.39-2.29,1.39-2.68,2.67-.17.57-.17,1.27-.17,2.66M242.73,40.16c0,2.49-2.02,4.5-4.52,4.5s-4.52-2.01-4.52-4.5,2.02-4.5,4.52-4.5,4.52,2.01,4.52,4.5Z"/>
    <path class="st4" d="M194.22,53.66c0-1.4,0-2.09-.17-2.66-.39-1.28-1.4-2.28-2.68-2.67-.57-.17-1.27-.17-2.67-.17h-5.03c-1.4,0-2.1,0-2.68.17-1.29.39-2.29,1.39-2.68,2.67-.17.57-.17,1.27-.17,2.66M190.71,40.16c0,2.49-2.03,4.5-4.52,4.5s-4.52-2.01-4.52-4.5,2.02-4.5,4.52-4.5,4.52,2.01,4.52,4.5Z"/>
    <path class="st4" d="M38.16,53.66c0-1.4,0-2.09-.17-2.66-.39-1.28-1.4-2.28-2.68-2.67-.57-.17-1.27-.17-2.68-.17h-5.03c-1.4,0-2.1,0-2.68.17-1.29.39-2.29,1.39-2.68,2.67-.17.57-.17,1.27-.17,2.66M34.64,40.16c0,2.49-2.03,4.5-4.52,4.5s-4.52-2.01-4.52-4.5,2.03-4.5,4.52-4.5,4.52,2.01,4.52,4.5Z"/>
    <path class="st4" d="M64.17,53.66c0-1.4,0-2.09-.17-2.66-.39-1.28-1.4-2.28-2.68-2.67-.57-.17-1.27-.17-2.68-.17h-5.03c-1.4,0-2.1,0-2.68.17-1.29.39-2.29,1.39-2.68,2.67-.17.57-.17,1.27-.17,2.66M60.65,40.16c0,2.49-2.03,4.5-4.52,4.5s-4.52-2.01-4.52-4.5,2.03-4.5,4.52-4.5,4.52,2.01,4.52,4.5Z"/>
    <path class="st4" d="M142.2,53.66c0-1.4,0-2.09-.17-2.66-.39-1.28-1.4-2.28-2.68-2.67-.57-.17-1.27-.17-2.68-.17h-5.03c-1.4,0-2.1,0-2.68.17-1.29.39-2.29,1.39-2.68,2.67-.17.57-.17,1.27-.17,2.66M138.68,40.16c0,2.49-2.03,4.5-4.52,4.5s-4.52-2.01-4.52-4.5,2.03-4.5,4.52-4.5,4.52,2.01,4.52,4.5Z"/>
    <path class="st4" d="M116.19,53.66c0-1.4,0-2.09-.17-2.66-.39-1.28-1.39-2.28-2.68-2.67-.57-.17-1.27-.17-2.67-.17h-5.03c-1.4,0-2.1,0-2.68.17-1.28.39-2.29,1.39-2.68,2.67-.17.57-.17,1.27-.17,2.66M112.67,40.16c0,2.49-2.03,4.5-4.52,4.5s-4.52-2.01-4.52-4.5,2.03-4.5,4.52-4.5,4.52,2.01,4.52,4.5Z"/>
    <path class="st4" d="M168.21,53.66c0-1.4,0-2.09-.17-2.66-.39-1.28-1.39-2.28-2.68-2.67-.57-.17-1.27-.17-2.68-.17h-5.03c-1.4,0-2.1,0-2.68.17-1.29.39-2.29,1.39-2.68,2.67-.17.57-.17,1.27-.17,2.66M164.7,40.16c0,2.49-2.03,4.5-4.52,4.5s-4.52-2.01-4.52-4.5,2.03-4.5,4.52-4.5,4.52,2.01,4.52,4.5Z"/>
    <path class="st4" d="M220.23,53.66c0-1.4,0-2.09-.17-2.66-.39-1.28-1.4-2.28-2.68-2.67-.57-.17-1.27-.17-2.68-.17h-5.03c-1.4,0-2.1,0-2.68.17-1.29.39-2.29,1.39-2.68,2.67-.17.57-.17,1.27-.17,2.66M216.72,40.16c0,2.49-2.03,4.5-4.52,4.5s-4.52-2.01-4.52-4.5,2.03-4.5,4.52-4.5,4.52,2.01,4.52,4.5Z"/>
    <path class="st4" d="M272.26,53.66c0-1.4,0-2.09-.17-2.66-.39-1.28-1.4-2.28-2.68-2.67-.57-.17-1.27-.17-2.67-.17h-5.03c-1.4,0-2.11,0-2.68.17-1.28.39-2.29,1.39-2.68,2.67-.17.57-.17,1.27-.17,2.66M268.74,40.16c0,2.49-2.03,4.5-4.52,4.5s-4.52-2.01-4.52-4.5,2.02-4.5,4.52-4.5,4.52,2.01,4.52,4.5Z"/>
    <path class="st4" d="M298.27,53.66c0-1.4,0-2.09-.17-2.66-.39-1.28-1.4-2.28-2.68-2.67-.57-.17-1.27-.17-2.68-.17h-5.03c-1.4,0-2.1,0-2.67.17-1.29.39-2.29,1.39-2.68,2.67-.17.57-.17,1.27-.17,2.66M294.75,40.16c0,2.49-2.03,4.5-4.52,4.5s-4.52-2.01-4.52-4.5,2.03-4.5,4.52-4.5,4.52,2.01,4.52,4.5Z"/>
    <path class="st4" d="M532.36,53.66c0-1.4,0-2.09-.17-2.66-.39-1.28-1.4-2.28-2.68-2.67-.57-.17-1.27-.17-2.67-.17h-5.03c-1.4,0-2.11,0-2.67.17-1.29.39-2.29,1.39-2.68,2.67-.17.57-.17,1.27-.17,2.66M528.84,40.16c0,2.49-2.03,4.5-4.52,4.5s-4.52-2.01-4.52-4.5,2.03-4.5,4.52-4.5,4.52,2.01,4.52,4.5Z"/>
    <path class="st4" d="M324.28,53.66c0-1.4,0-2.09-.17-2.66-.39-1.28-1.4-2.28-2.68-2.67-.57-.17-1.27-.17-2.67-.17h-5.03c-1.4,0-2.1,0-2.67.17-1.29.39-2.29,1.39-2.68,2.67-.17.57-.17,1.27-.17,2.66M320.76,40.16c0,2.49-2.02,4.5-4.52,4.5s-4.52-2.01-4.52-4.5,2.02-4.5,4.52-4.5,4.52,2.01,4.52,4.5Z"/>
    <path class="st4" d="M350.29,53.66c0-1.4,0-2.09-.17-2.66-.39-1.28-1.4-2.28-2.68-2.67-.57-.17-1.27-.17-2.68-.17h-5.03c-1.4,0-2.1,0-2.67.17-1.29.39-2.29,1.39-2.68,2.67-.17.57-.17,1.27-.17,2.66M346.77,40.16c0,2.49-2.03,4.5-4.52,4.5s-4.52-2.01-4.52-4.5,2.03-4.5,4.52-4.5,4.52,2.01,4.52,4.5Z"/>
    <path class="st4" d="M376.3,53.66c0-1.4,0-2.09-.17-2.66-.39-1.28-1.4-2.28-2.68-2.67-.57-.17-1.27-.17-2.67-.17h-5.03c-1.4,0-2.1,0-2.67.17-1.29.39-2.29,1.39-2.68,2.67-.17.57-.17,1.27-.17,2.66M372.78,40.16c0,2.49-2.03,4.5-4.52,4.5s-4.52-2.01-4.52-4.5,2.03-4.5,4.52-4.5,4.52,2.01,4.52,4.5Z"/>
    <path class="st4" d="M402.31,53.66c0-1.4,0-2.09-.17-2.66-.39-1.28-1.4-2.28-2.68-2.67-.57-.17-1.27-.17-2.67-.17h-5.03c-1.4,0-2.11,0-2.68.17-1.29.39-2.29,1.39-2.68,2.67-.17.57-.17,1.27-.17,2.66M398.79,40.16c0,2.49-2.03,4.5-4.52,4.5s-4.52-2.01-4.52-4.5,2.02-4.5,4.52-4.5,4.52,2.01,4.52,4.5Z"/>
    <path class="st4" d="M428.32,53.66c0-1.4,0-2.09-.17-2.66-.39-1.28-1.4-2.28-2.68-2.67-.57-.17-1.27-.17-2.68-.17h-5.03c-1.4,0-2.1,0-2.67.17-1.29.39-2.29,1.39-2.68,2.67-.17.57-.17,1.27-.17,2.66M424.8,40.16c0,2.49-2.03,4.5-4.52,4.5s-4.52-2.01-4.52-4.5,2.03-4.5,4.52-4.5,4.52,2.01,4.52,4.5Z"/>
    <path class="st4" d="M454.33,53.66c0-1.4,0-2.09-.17-2.66-.39-1.28-1.4-2.28-2.68-2.67-.57-.17-1.27-.17-2.67-.17h-5.03c-1.4,0-2.1,0-2.68.17-1.28.39-2.29,1.39-2.68,2.67-.17.57-.17,1.27-.17,2.66M450.81,40.16c0,2.49-2.02,4.5-4.52,4.5s-4.52-2.01-4.52-4.5,2.02-4.5,4.52-4.5,4.52,2.01,4.52,4.5Z"/>
    <path class="st4" d="M480.34,53.66c0-1.4,0-2.09-.17-2.66-.39-1.28-1.4-2.28-2.68-2.67-.57-.17-1.27-.17-2.68-.17h-5.03c-1.4,0-2.1,0-2.67.17-1.29.39-2.29,1.39-2.68,2.67-.17.57-.17,1.27-.17,2.66M476.82,40.16c0,2.49-2.03,4.5-4.52,4.5s-4.52-2.01-4.52-4.5,2.03-4.5,4.52-4.5,4.52,2.01,4.52,4.5Z"/>
    <path class="st4" d="M506.35,53.66c0-1.4,0-2.09-.17-2.66-.39-1.28-1.4-2.28-2.68-2.67-.57-.17-1.27-.17-2.67-.17h-5.03c-1.4,0-2.1,0-2.67.17-1.29.39-2.29,1.39-2.68,2.67-.17.57-.17,1.27-.17,2.66M502.83,40.16c0,2.49-2.02,4.5-4.52,4.5s-4.52-2.01-4.52-4.5,2.03-4.5,4.52-4.5,4.52,2.01,4.52,4.5Z"/>
    <path class="st4" d="M90.18,75.5c0-1.4,0-2.09-.17-2.66-.39-1.28-1.4-2.28-2.68-2.67-.57-.17-1.27-.17-2.68-.17h-5.03c-1.4,0-2.1,0-2.68.17-1.29.39-2.29,1.39-2.68,2.67-.17.57-.17,1.27-.17,2.66M86.66,62c0,2.49-2.03,4.5-4.52,4.5s-4.52-2.01-4.52-4.5,2.03-4.5,4.52-4.5,4.52,2.01,4.52,4.5Z"/>
    <path class="st4" d="M246.24,75.5c0-1.4,0-2.09-.17-2.66-.39-1.28-1.4-2.28-2.68-2.67-.57-.17-1.27-.17-2.68-.17h-5.03c-1.4,0-2.1,0-2.67.17-1.29.39-2.29,1.39-2.68,2.67-.17.57-.17,1.27-.17,2.66M242.73,62c0,2.49-2.02,4.5-4.52,4.5s-4.52-2.01-4.52-4.5,2.02-4.5,4.52-4.5,4.52,2.01,4.52,4.5Z"/>
    <path class="st4" d="M194.22,75.5c0-1.4,0-2.09-.17-2.66-.39-1.28-1.4-2.28-2.68-2.67-.57-.17-1.27-.17-2.67-.17h-5.03c-1.4,0-2.1,0-2.68.17-1.29.39-2.29,1.39-2.68,2.67-.17.57-.17,1.27-.17,2.66M190.71,62c0,2.49-2.03,4.5-4.52,4.5s-4.52-2.01-4.52-4.5,2.02-4.5,4.52-4.5,4.52,2.01,4.52,4.5Z"/>
    <path class="st4" d="M38.16,75.5c0-1.4,0-2.09-.17-2.66-.39-1.28-1.4-2.28-2.68-2.67-.57-.17-1.27-.17-2.68-.17h-5.03c-1.4,0-2.1,0-2.68.17-1.29.39-2.29,1.39-2.68,2.67-.17.57-.17,1.27-.17,2.66M34.64,62c0,2.49-2.03,4.5-4.52,4.5s-4.52-2.01-4.52-4.5,2.03-4.5,4.52-4.5,4.52,2.01,4.52,4.5Z"/>
    <path class="st4" d="M64.17,75.5c0-1.4,0-2.09-.17-2.66-.39-1.28-1.4-2.28-2.68-2.67-.57-.17-1.27-.17-2.68-.17h-5.03c-1.4,0-2.1,0-2.68.17-1.29.39-2.29,1.39-2.68,2.67-.17.57-.17,1.27-.17,2.66M60.65,62c0,2.49-2.03,4.5-4.52,4.5s-4.52-2.01-4.52-4.5,2.03-4.5,4.52-4.5,4.52,2.01,4.52,4.5Z"/>
    <path class="st4" d="M142.2,75.5c0-1.4,0-2.09-.17-2.66-.39-1.28-1.4-2.28-2.68-2.67-.57-.17-1.27-.17-2.68-.17h-5.03c-1.4,0-2.1,0-2.68.17-1.29.39-2.29,1.39-2.68,2.67-.17.57-.17,1.27-.17,2.66M138.68,62c0,2.49-2.03,4.5-4.52,4.5s-4.52-2.01-4.52-4.5,2.03-4.5,4.52-4.5,4.52,2.01,4.52,4.5Z"/>
    <path class="st4" d="M116.19,75.5c0-1.4,0-2.09-.17-2.66-.39-1.28-1.39-2.28-2.68-2.67-.57-.17-1.27-.17-2.67-.17h-5.03c-1.4,0-2.1,0-2.68.17-1.28.39-2.29,1.39-2.68,2.67-.17.57-.17,1.27-.17,2.66M112.67,62c0,2.49-2.03,4.5-4.52,4.5s-4.52-2.01-4.52-4.5,2.03-4.5,4.52-4.5,4.52,2.01,4.52,4.5Z"/>
    <path class="st4" d="M168.21,75.5c0-1.4,0-2.09-.17-2.66-.39-1.28-1.39-2.28-2.68-2.67-.57-.17-1.27-.17-2.68-.17h-5.03c-1.4,0-2.1,0-2.68.17-1.29.39-2.29,1.39-2.68,2.67-.17.57-.17,1.27-.17,2.66M164.7,62c0,2.49-2.03,4.5-4.52,4.5s-4.52-2.01-4.52-4.5,2.03-4.5,4.52-4.5,4.52,2.01,4.52,4.5Z"/>
    <path class="st4" d="M220.23,75.5c0-1.4,0-2.09-.17-2.66-.39-1.28-1.4-2.28-2.68-2.67-.57-.17-1.27-.17-2.68-.17h-5.03c-1.4,0-2.1,0-2.68.17-1.29.39-2.29,1.39-2.68,2.67-.17.57-.17,1.27-.17,2.66M216.72,62c0,2.49-2.03,4.5-4.52,4.5s-4.52-2.01-4.52-4.5,2.03-4.5,4.52-4.5,4.52,2.01,4.52,4.5Z"/>
    <path class="st4" d="M272.26,75.5c0-1.4,0-2.09-.17-2.66-.39-1.28-1.4-2.28-2.68-2.67-.57-.17-1.27-.17-2.67-.17h-5.03c-1.4,0-2.11,0-2.68.17-1.28.39-2.29,1.39-2.68,2.67-.17.57-.17,1.27-.17,2.66M268.74,62c0,2.49-2.03,4.5-4.52,4.5s-4.52-2.01-4.52-4.5,2.02-4.5,4.52-4.5,4.52,2.01,4.52,4.5Z"/>
    <path class="st4" d="M298.27,75.5c0-1.4,0-2.09-.17-2.66-.39-1.28-1.4-2.28-2.68-2.67-.57-.17-1.27-.17-2.68-.17h-5.03c-1.4,0-2.1,0-2.67.17-1.29.39-2.29,1.39-2.68,2.67-.17.57-.17,1.27-.17,2.66M294.75,62c0,2.49-2.03,4.5-4.52,4.5s-4.52-2.01-4.52-4.5,2.03-4.5,4.52-4.5,4.52,2.01,4.52,4.5Z"/>
    <path class="st4" d="M532.36,75.5c0-1.4,0-2.09-.17-2.66-.39-1.28-1.4-2.28-2.68-2.67-.57-.17-1.27-.17-2.67-.17h-5.03c-1.4,0-2.11,0-2.67.17-1.29.39-2.29,1.39-2.68,2.67-.17.57-.17,1.27-.17,2.66M528.84,62c0,2.49-2.03,4.5-4.52,4.5s-4.52-2.01-4.52-4.5,2.03-4.5,4.52-4.5,4.52,2.01,4.52,4.5Z"/>
    <path class="st4" d="M324.28,75.5c0-1.4,0-2.09-.17-2.66-.39-1.28-1.4-2.28-2.68-2.67-.57-.17-1.27-.17-2.67-.17h-5.03c-1.4,0-2.1,0-2.67.17-1.29.39-2.29,1.39-2.68,2.67-.17.57-.17,1.27-.17,2.66M320.76,62c0,2.49-2.02,4.5-4.52,4.5s-4.52-2.01-4.52-4.5,2.02-4.5,4.52-4.5,4.52,2.01,4.52,4.5Z"/>
    <path class="st4" d="M350.29,75.5c0-1.4,0-2.09-.17-2.66-.39-1.28-1.4-2.28-2.68-2.67-.57-.17-1.27-.17-2.68-.17h-5.03c-1.4,0-2.1,0-2.67.17-1.29.39-2.29,1.39-2.68,2.67-.17.57-.17,1.27-.17,2.66M346.77,62c0,2.49-2.03,4.5-4.52,4.5s-4.52-2.01-4.52-4.5,2.03-4.5,4.52-4.5,4.52,2.01,4.52,4.5Z"/>
    <path class="st4" d="M376.3,75.5c0-1.4,0-2.09-.17-2.66-.39-1.28-1.4-2.28-2.68-2.67-.57-.17-1.27-.17-2.67-.17h-5.03c-1.4,0-2.1,0-2.67.17-1.29.39-2.29,1.39-2.68,2.67-.17.57-.17,1.27-.17,2.66M372.78,62c0,2.49-2.03,4.5-4.52,4.5s-4.52-2.01-4.52-4.5,2.03-4.5,4.52-4.5,4.52,2.01,4.52,4.5Z"/>
    <path class="st4" d="M402.31,75.5c0-1.4,0-2.09-.17-2.66-.39-1.28-1.4-2.28-2.68-2.67-.57-.17-1.27-.17-2.67-.17h-5.03c-1.4,0-2.11,0-2.68.17-1.29.39-2.29,1.39-2.68,2.67-.17.57-.17,1.27-.17,2.66M398.79,62c0,2.49-2.03,4.5-4.52,4.5s-4.52-2.01-4.52-4.5,2.02-4.5,4.52-4.5,4.52,2.01,4.52,4.5Z"/>
    <path class="st4" d="M428.32,75.5c0-1.4,0-2.09-.17-2.66-.39-1.28-1.4-2.28-2.68-2.67-.57-.17-1.27-.17-2.68-.17h-5.03c-1.4,0-2.1,0-2.67.17-1.29.39-2.29,1.39-2.68,2.67-.17.57-.17,1.27-.17,2.66M424.8,62c0,2.49-2.03,4.5-4.52,4.5s-4.52-2.01-4.52-4.5,2.03-4.5,4.52-4.5,4.52,2.01,4.52,4.5Z"/>
    <path class="st4" d="M454.33,75.5c0-1.4,0-2.09-.17-2.66-.39-1.28-1.4-2.28-2.68-2.67-.57-.17-1.27-.17-2.67-.17h-5.03c-1.4,0-2.1,0-2.68.17-1.28.39-2.29,1.39-2.68,2.67-.17.57-.17,1.27-.17,2.66M450.81,62c0,2.49-2.02,4.5-4.52,4.5s-4.52-2.01-4.52-4.5,2.02-4.5,4.52-4.5,4.52,2.01,4.52,4.5Z"/>
    <path class="st4" d="M480.34,75.5c0-1.4,0-2.09-.17-2.66-.39-1.28-1.4-2.28-2.68-2.67-.57-.17-1.27-.17-2.68-.17h-5.03c-1.4,0-2.1,0-2.67.17-1.29.39-2.29,1.39-2.68,2.67-.17.57-.17,1.27-.17,2.66M476.82,62c0,2.49-2.03,4.5-4.52,4.5s-4.52-2.01-4.52-4.5,2.03-4.5,4.52-4.5,4.52,2.01,4.52,4.5Z"/>
    <path class="st4" d="M506.35,75.5c0-1.4,0-2.09-.17-2.66-.39-1.28-1.4-2.28-2.68-2.67-.57-.17-1.27-.17-2.67-.17h-5.03c-1.4,0-2.1,0-2.67.17-1.29.39-2.29,1.39-2.68,2.67-.17.57-.17,1.27-.17,2.66M502.83,62c0,2.49-2.02,4.5-4.52,4.5s-4.52-2.01-4.52-4.5,2.03-4.5,4.52-4.5,4.52,2.01,4.52,4.5Z"/>
    <path class="st4" d="M90.18,97.33c0-1.4,0-2.09-.17-2.66-.39-1.28-1.4-2.28-2.68-2.67-.57-.17-1.27-.17-2.68-.17h-5.03c-1.4,0-2.1,0-2.68.17-1.29.39-2.29,1.39-2.68,2.67-.17.57-.17,1.27-.17,2.66M86.66,83.83c0,2.49-2.03,4.5-4.52,4.5s-4.52-2.01-4.52-4.5,2.03-4.5,4.52-4.5,4.52,2.01,4.52,4.5Z"/>
    <path class="st4" d="M246.24,97.33c0-1.4,0-2.09-.17-2.66-.39-1.28-1.4-2.28-2.68-2.67-.57-.17-1.27-.17-2.68-.17h-5.03c-1.4,0-2.1,0-2.67.17-1.29.39-2.29,1.39-2.68,2.67-.17.57-.17,1.27-.17,2.66M242.73,83.83c0,2.49-2.02,4.5-4.52,4.5s-4.52-2.01-4.52-4.5,2.02-4.5,4.52-4.5,4.52,2.01,4.52,4.5Z"/>
    <path class="st4" d="M194.22,97.33c0-1.4,0-2.09-.17-2.66-.39-1.28-1.4-2.28-2.68-2.67-.57-.17-1.27-.17-2.67-.17h-5.03c-1.4,0-2.1,0-2.68.17-1.29.39-2.29,1.39-2.68,2.67-.17.57-.17,1.27-.17,2.66M190.71,83.83c0,2.49-2.03,4.5-4.52,4.5s-4.52-2.01-4.52-4.5,2.02-4.5,4.52-4.5,4.52,2.01,4.52,4.5Z"/>
    <path class="st4" d="M38.16,97.33c0-1.4,0-2.09-.17-2.66-.39-1.28-1.4-2.28-2.68-2.67-.57-.17-1.27-.17-2.68-.17h-5.03c-1.4,0-2.1,0-2.68.17-1.29.39-2.29,1.39-2.68,2.67-.17.57-.17,1.27-.17,2.66M34.64,83.83c0,2.49-2.03,4.5-4.52,4.5s-4.52-2.01-4.52-4.5,2.03-4.5,4.52-4.5,4.52,2.01,4.52,4.5Z"/>
    <path class="st4" d="M64.17,97.33c0-1.4,0-2.09-.17-2.66-.39-1.28-1.4-2.28-2.68-2.67-.57-.17-1.27-.17-2.68-.17h-5.03c-1.4,0-2.1,0-2.68.17-1.29.39-2.29,1.39-2.68,2.67-.17.57-.17,1.27-.17,2.66M60.65,83.83c0,2.49-2.03,4.5-4.52,4.5s-4.52-2.01-4.52-4.5,2.03-4.5,4.52-4.5,4.52,2.01,4.52,4.5Z"/>
    <path class="st4" d="M142.2,97.33c0-1.4,0-2.09-.17-2.66-.39-1.28-1.4-2.28-2.68-2.67-.57-.17-1.27-.17-2.68-.17h-5.03c-1.4,0-2.1,0-2.68.17-1.29.39-2.29,1.39-2.68,2.67-.17.57-.17,1.27-.17,2.66M138.68,83.83c0,2.49-2.03,4.5-4.52,4.5s-4.52-2.01-4.52-4.5,2.03-4.5,4.52-4.5,4.52,2.01,4.52,4.5Z"/>
    <path class="st4" d="M116.19,97.33c0-1.4,0-2.09-.17-2.66-.39-1.28-1.39-2.28-2.68-2.67-.57-.17-1.27-.17-2.67-.17h-5.03c-1.4,0-2.1,0-2.68.17-1.28.39-2.29,1.39-2.68,2.67-.17.57-.17,1.27-.17,2.66M112.67,83.83c0,2.49-2.03,4.5-4.52,4.5s-4.52-2.01-4.52-4.5,2.03-4.5,4.52-4.5,4.52,2.01,4.52,4.5Z"/>
    <path class="st4" d="M168.21,97.33c0-1.4,0-2.09-.17-2.66-.39-1.28-1.39-2.28-2.68-2.67-.57-.17-1.27-.17-2.68-.17h-5.03c-1.4,0-2.1,0-2.68.17-1.29.39-2.29,1.39-2.68,2.67-.17.57-.17,1.27-.17,2.66M164.7,83.83c0,2.49-2.03,4.5-4.52,4.5s-4.52-2.01-4.52-4.5,2.03-4.5,4.52-4.5,4.52,2.01,4.52,4.5Z"/>
    <path class="st4" d="M220.23,97.33c0-1.4,0-2.09-.17-2.66-.39-1.28-1.4-2.28-2.68-2.67-.57-.17-1.27-.17-2.68-.17h-5.03c-1.4,0-2.1,0-2.68.17-1.29.39-2.29,1.39-2.68,2.67-.17.57-.17,1.27-.17,2.66M216.72,83.83c0,2.49-2.03,4.5-4.52,4.5s-4.52-2.01-4.52-4.5,2.03-4.5,4.52-4.5,4.52,2.01,4.52,4.5Z"/>
    <path class="st4" d="M272.26,97.33c0-1.4,0-2.09-.17-2.66-.39-1.28-1.4-2.28-2.68-2.67-.57-.17-1.27-.17-2.67-.17h-5.03c-1.4,0-2.11,0-2.68.17-1.28.39-2.29,1.39-2.68,2.67-.17.57-.17,1.27-.17,2.66M268.74,83.83c0,2.49-2.03,4.5-4.52,4.5s-4.52-2.01-4.52-4.5,2.02-4.5,4.52-4.5,4.52,2.01,4.52,4.5Z"/>
    <path class="st4" d="M298.27,97.33c0-1.4,0-2.09-.17-2.66-.39-1.28-1.4-2.28-2.68-2.67-.57-.17-1.27-.17-2.68-.17h-5.03c-1.4,0-2.1,0-2.67.17-1.29.39-2.29,1.39-2.68,2.67-.17.57-.17,1.27-.17,2.66M294.75,83.83c0,2.49-2.03,4.5-4.52,4.5s-4.52-2.01-4.52-4.5,2.03-4.5,4.52-4.5,4.52,2.01,4.52,4.5Z"/>
    <path class="st4" d="M532.36,97.33c0-1.4,0-2.09-.17-2.66-.39-1.28-1.4-2.28-2.68-2.67-.57-.17-1.27-.17-2.67-.17h-5.03c-1.4,0-2.11,0-2.67.17-1.29.39-2.29,1.39-2.68,2.67-.17.57-.17,1.27-.17,2.66M528.84,83.83c0,2.49-2.03,4.5-4.52,4.5s-4.52-2.01-4.52-4.5,2.03-4.5,4.52-4.5,4.52,2.01,4.52,4.5Z"/>
    <path class="st4" d="M324.28,97.33c0-1.4,0-2.09-.17-2.66-.39-1.28-1.4-2.28-2.68-2.67-.57-.17-1.27-.17-2.67-.17h-5.03c-1.4,0-2.1,0-2.67.17-1.29.39-2.29,1.39-2.68,2.67-.17.57-.17,1.27-.17,2.66M320.76,83.83c0,2.49-2.02,4.5-4.52,4.5s-4.52-2.01-4.52-4.5,2.02-4.5,4.52-4.5,4.52,2.01,4.52,4.5Z"/>
    <path class="st4" d="M350.29,97.33c0-1.4,0-2.09-.17-2.66-.39-1.28-1.4-2.28-2.68-2.67-.57-.17-1.27-.17-2.68-.17h-5.03c-1.4,0-2.1,0-2.67.17-1.29.39-2.29,1.39-2.68,2.67-.17.57-.17,1.27-.17,2.66M346.77,83.83c0,2.49-2.03,4.5-4.52,4.5s-4.52-2.01-4.52-4.5,2.03-4.5,4.52-4.5,4.52,2.01,4.52,4.5Z"/>
    <path class="st4" d="M376.3,97.33c0-1.4,0-2.09-.17-2.66-.39-1.28-1.4-2.28-2.68-2.67-.57-.17-1.27-.17-2.67-.17h-5.03c-1.4,0-2.1,0-2.67.17-1.29.39-2.29,1.39-2.68,2.67-.17.57-.17,1.27-.17,2.66M372.78,83.83c0,2.49-2.03,4.5-4.52,4.5s-4.52-2.01-4.52-4.5,2.03-4.5,4.52-4.5,4.52,2.01,4.52,4.5Z"/>
    <path class="st4" d="M402.31,97.33c0-1.4,0-2.09-.17-2.66-.39-1.28-1.4-2.28-2.68-2.67-.57-.17-1.27-.17-2.67-.17h-5.03c-1.4,0-2.11,0-2.68.17-1.29.39-2.29,1.39-2.68,2.67-.17.57-.17,1.27-.17,2.66M398.79,83.83c0,2.49-2.03,4.5-4.52,4.5s-4.52-2.01-4.52-4.5,2.02-4.5,4.52-4.5,4.52,2.01,4.52,4.5Z"/>
    <path class="st4" d="M428.32,97.33c0-1.4,0-2.09-.17-2.66-.39-1.28-1.4-2.28-2.68-2.67-.57-.17-1.27-.17-2.68-.17h-5.03c-1.4,0-2.1,0-2.67.17-1.29.39-2.29,1.39-2.68,2.67-.17.57-.17,1.27-.17,2.66M424.8,83.83c0,2.49-2.03,4.5-4.52,4.5s-4.52-2.01-4.52-4.5,2.03-4.5,4.52-4.5,4.52,2.01,4.52,4.5Z"/>
    <path class="st4" d="M454.33,97.33c0-1.4,0-2.09-.17-2.66-.39-1.28-1.4-2.28-2.68-2.67-.57-.17-1.27-.17-2.67-.17h-5.03c-1.4,0-2.1,0-2.68.17-1.28.39-2.29,1.39-2.68,2.67-.17.57-.17,1.27-.17,2.66M450.81,83.83c0,2.49-2.02,4.5-4.52,4.5s-4.52-2.01-4.52-4.5,2.02-4.5,4.52-4.5,4.52,2.01,4.52,4.5Z"/>
    <path class="st4" d="M480.34,97.33c0-1.4,0-2.09-.17-2.66-.39-1.28-1.4-2.28-2.68-2.67-.57-.17-1.27-.17-2.68-.17h-5.03c-1.4,0-2.1,0-2.67.17-1.29.39-2.29,1.39-2.68,2.67-.17.57-.17,1.27-.17,2.66M476.82,83.83c0,2.49-2.03,4.5-4.52,4.5s-4.52-2.01-4.52-4.5,2.03-4.5,4.52-4.5,4.52,2.01,4.52,4.5Z"/>
    <path class="st4" d="M506.35,97.33c0-1.4,0-2.09-.17-2.66-.39-1.28-1.4-2.28-2.68-2.67-.57-.17-1.27-.17-2.67-.17h-5.03c-1.4,0-2.1,0-2.67.17-1.29.39-2.29,1.39-2.68,2.67-.17.57-.17,1.27-.17,2.66M502.83,83.83c0,2.49-2.02,4.5-4.52,4.5s-4.52-2.01-4.52-4.5,2.03-4.5,4.52-4.5,4.52,2.01,4.52,4.5Z"/>
    <path class="st4" d="M90.18,119.17c0-1.39,0-2.09-.17-2.66-.39-1.28-1.4-2.28-2.68-2.67-.57-.17-1.27-.17-2.68-.17h-5.03c-1.4,0-2.1,0-2.68.17-1.29.39-2.29,1.39-2.68,2.67-.17.57-.17,1.27-.17,2.66M86.66,105.67c0,2.49-2.03,4.5-4.52,4.5s-4.52-2.01-4.52-4.5,2.03-4.5,4.52-4.5,4.52,2.01,4.52,4.5Z"/>
    <path class="st4" d="M246.24,119.17c0-1.39,0-2.09-.17-2.66-.39-1.28-1.4-2.28-2.68-2.67-.57-.17-1.27-.17-2.68-.17h-5.03c-1.4,0-2.1,0-2.67.17-1.29.39-2.29,1.39-2.68,2.67-.17.57-.17,1.27-.17,2.66M242.73,105.67c0,2.49-2.02,4.5-4.52,4.5s-4.52-2.01-4.52-4.5,2.02-4.5,4.52-4.5,4.52,2.01,4.52,4.5Z"/>
    <path class="st4" d="M194.22,119.17c0-1.39,0-2.09-.17-2.66-.39-1.28-1.4-2.28-2.68-2.67-.57-.17-1.27-.17-2.67-.17h-5.03c-1.4,0-2.1,0-2.68.17-1.29.39-2.29,1.39-2.68,2.67-.17.57-.17,1.27-.17,2.66M190.71,105.67c0,2.49-2.03,4.5-4.52,4.5s-4.52-2.01-4.52-4.5,2.02-4.5,4.52-4.5,4.52,2.01,4.52,4.5Z"/>
    <path class="st4" d="M38.16,119.17c0-1.39,0-2.09-.17-2.66-.39-1.28-1.4-2.28-2.68-2.67-.57-.17-1.27-.17-2.68-.17h-5.03c-1.4,0-2.1,0-2.68.17-1.29.39-2.29,1.39-2.68,2.67-.17.57-.17,1.27-.17,2.66M34.64,105.67c0,2.49-2.03,4.5-4.52,4.5s-4.52-2.01-4.52-4.5,2.03-4.5,4.52-4.5,4.52,2.01,4.52,4.5Z"/>
    <path class="st4" d="M64.17,119.17c0-1.39,0-2.09-.17-2.66-.39-1.28-1.4-2.28-2.68-2.67-.57-.17-1.27-.17-2.68-.17h-5.03c-1.4,0-2.1,0-2.68.17-1.29.39-2.29,1.39-2.68,2.67-.17.57-.17,1.27-.17,2.66M60.65,105.67c0,2.49-2.03,4.5-4.52,4.5s-4.52-2.01-4.52-4.5,2.03-4.5,4.52-4.5,4.52,2.01,4.52,4.5Z"/>
    <path class="st4" d="M142.2,119.17c0-1.39,0-2.09-.17-2.66-.39-1.28-1.4-2.28-2.68-2.67-.57-.17-1.27-.17-2.68-.17h-5.03c-1.4,0-2.1,0-2.68.17-1.29.39-2.29,1.39-2.68,2.67-.17.57-.17,1.27-.17,2.66M138.68,105.67c0,2.49-2.03,4.5-4.52,4.5s-4.52-2.01-4.52-4.5,2.03-4.5,4.52-4.5,4.52,2.01,4.52,4.5Z"/>
    <path class="st4" d="M116.19,119.17c0-1.39,0-2.09-.17-2.66-.39-1.28-1.39-2.28-2.68-2.67-.57-.17-1.27-.17-2.67-.17h-5.03c-1.4,0-2.1,0-2.68.17-1.28.39-2.29,1.39-2.68,2.67-.17.57-.17,1.27-.17,2.66M112.67,105.67c0,2.49-2.03,4.5-4.52,4.5s-4.52-2.01-4.52-4.5,2.03-4.5,4.52-4.5,4.52,2.01,4.52,4.5Z"/>
    <path class="st4" d="M168.21,119.17c0-1.39,0-2.09-.17-2.66-.39-1.28-1.39-2.28-2.68-2.67-.57-.17-1.27-.17-2.68-.17h-5.03c-1.4,0-2.1,0-2.68.17-1.29.39-2.29,1.39-2.68,2.67-.17.57-.17,1.27-.17,2.66M164.7,105.67c0,2.49-2.03,4.5-4.52,4.5s-4.52-2.01-4.52-4.5,2.03-4.5,4.52-4.5,4.52,2.01,4.52,4.5Z"/>
    <path class="st4" d="M220.23,119.17c0-1.39,0-2.09-.17-2.66-.39-1.28-1.4-2.28-2.68-2.67-.57-.17-1.27-.17-2.68-.17h-5.03c-1.4,0-2.1,0-2.68.17-1.29.39-2.29,1.39-2.68,2.67-.17.57-.17,1.27-.17,2.66M216.72,105.67c0,2.49-2.03,4.5-4.52,4.5s-4.52-2.01-4.52-4.5,2.03-4.5,4.52-4.5,4.52,2.01,4.52,4.5Z"/>
    <path class="st4" d="M272.26,119.17c0-1.39,0-2.09-.17-2.66-.39-1.28-1.4-2.28-2.68-2.67-.57-.17-1.27-.17-2.67-.17h-5.03c-1.4,0-2.11,0-2.68.17-1.28.39-2.29,1.39-2.68,2.67-.17.57-.17,1.27-.17,2.66M268.74,105.67c0,2.49-2.03,4.5-4.52,4.5s-4.52-2.01-4.52-4.5,2.02-4.5,4.52-4.5,4.52,2.01,4.52,4.5Z"/>
    <path class="st4" d="M298.27,119.17c0-1.39,0-2.09-.17-2.66-.39-1.28-1.4-2.28-2.68-2.67-.57-.17-1.27-.17-2.68-.17h-5.03c-1.4,0-2.1,0-2.67.17-1.29.39-2.29,1.39-2.68,2.67-.17.57-.17,1.27-.17,2.66M294.75,105.67c0,2.49-2.03,4.5-4.52,4.5s-4.52-2.01-4.52-4.5,2.03-4.5,4.52-4.5,4.52,2.01,4.52,4.5Z"/>
    <path class="st4" d="M532.36,119.17c0-1.39,0-2.09-.17-2.66-.39-1.28-1.4-2.28-2.68-2.67-.57-.17-1.27-.17-2.67-.17h-5.03c-1.4,0-2.11,0-2.67.17-1.29.39-2.29,1.39-2.68,2.67-.17.57-.17,1.27-.17,2.66M528.84,105.67c0,2.49-2.03,4.5-4.52,4.5s-4.52-2.01-4.52-4.5,2.03-4.5,4.52-4.5,4.52,2.01,4.52,4.5Z"/>
    <path class="st4" d="M324.28,119.17c0-1.39,0-2.09-.17-2.66-.39-1.28-1.4-2.28-2.68-2.67-.57-.17-1.27-.17-2.67-.17h-5.03c-1.4,0-2.1,0-2.67.17-1.29.39-2.29,1.39-2.68,2.67-.17.57-.17,1.27-.17,2.66M320.76,105.67c0,2.49-2.02,4.5-4.52,4.5s-4.52-2.01-4.52-4.5,2.02-4.5,4.52-4.5,4.52,2.01,4.52,4.5Z"/>
    <path class="st4" d="M350.29,119.17c0-1.39,0-2.09-.17-2.66-.39-1.28-1.4-2.28-2.68-2.67-.57-.17-1.27-.17-2.68-.17h-5.03c-1.4,0-2.1,0-2.67.17-1.29.39-2.29,1.39-2.68,2.67-.17.57-.17,1.27-.17,2.66M346.77,105.67c0,2.49-2.03,4.5-4.52,4.5s-4.52-2.01-4.52-4.5,2.03-4.5,4.52-4.5,4.52,2.01,4.52,4.5Z"/>
    <path class="st4" d="M376.3,119.17c0-1.39,0-2.09-.17-2.66-.39-1.28-1.4-2.28-2.68-2.67-.57-.17-1.27-.17-2.67-.17h-5.03c-1.4,0-2.1,0-2.67.17-1.29.39-2.29,1.39-2.68,2.67-.17.57-.17,1.27-.17,2.66M372.78,105.67c0,2.49-2.03,4.5-4.52,4.5s-4.52-2.01-4.52-4.5,2.03-4.5,4.52-4.5,4.52,2.01,4.52,4.5Z"/>
    <path class="st4" d="M402.31,119.17c0-1.39,0-2.09-.17-2.66-.39-1.28-1.4-2.28-2.68-2.67-.57-.17-1.27-.17-2.67-.17h-5.03c-1.4,0-2.11,0-2.68.17-1.29.39-2.29,1.39-2.68,2.67-.17.57-.17,1.27-.17,2.66M398.79,105.67c0,2.49-2.03,4.5-4.52,4.5s-4.52-2.01-4.52-4.5,2.02-4.5,4.52-4.5,4.52,2.01,4.52,4.5Z"/>
    <path class="st4" d="M428.32,119.17c0-1.39,0-2.09-.17-2.66-.39-1.28-1.4-2.28-2.68-2.67-.57-.17-1.27-.17-2.68-.17h-5.03c-1.4,0-2.1,0-2.67.17-1.29.39-2.29,1.39-2.68,2.67-.17.57-.17,1.27-.17,2.66M424.8,105.67c0,2.49-2.03,4.5-4.52,4.5s-4.52-2.01-4.52-4.5,2.03-4.5,4.52-4.5,4.52,2.01,4.52,4.5Z"/>
    <path class="st4" d="M454.33,119.17c0-1.39,0-2.09-.17-2.66-.39-1.28-1.4-2.28-2.68-2.67-.57-.17-1.27-.17-2.67-.17h-5.03c-1.4,0-2.1,0-2.68.17-1.28.39-2.29,1.39-2.68,2.67-.17.57-.17,1.27-.17,2.66M450.81,105.67c0,2.49-2.02,4.5-4.52,4.5s-4.52-2.01-4.52-4.5,2.02-4.5,4.52-4.5,4.52,2.01,4.52,4.5Z"/>
    <path class="st4" d="M480.34,119.17c0-1.39,0-2.09-.17-2.66-.39-1.28-1.4-2.28-2.68-2.67-.57-.17-1.27-.17-2.68-.17h-5.03c-1.4,0-2.1,0-2.67.17-1.29.39-2.29,1.39-2.68,2.67-.17.57-.17,1.27-.17,2.66M476.82,105.67c0,2.49-2.03,4.5-4.52,4.5s-4.52-2.01-4.52-4.5,2.03-4.5,4.52-4.5,4.52,2.01,4.52,4.5Z"/>
    <path class="st4" d="M506.35,119.17c0-1.39,0-2.09-.17-2.66-.39-1.28-1.4-2.28-2.68-2.67-.57-.17-1.27-.17-2.67-.17h-5.03c-1.4,0-2.1,0-2.67.17-1.29.39-2.29,1.39-2.68,2.67-.17.57-.17,1.27-.17,2.66M502.83,105.67c0,2.49-2.02,4.5-4.52,4.5s-4.52-2.01-4.52-4.5,2.03-4.5,4.52-4.5,4.52,2.01,4.52,4.5Z"/>
    <path class="st5" d="M23.51,213.65h-2.9v-15.36h6.91c.95,0,1.77.2,2.44.59s1.2.95,1.56,1.67c.37.7.55,1.53.55,2.49s-.18,1.79-.55,2.51c-.37.7-.89,1.25-1.56,1.65-.67.4-1.49.59-2.44.59h-4v5.85ZM23.51,200.83v4.47h3.74c.38,0,.7-.07.97-.2.26-.15.47-.34.62-.59.15-.26.22-.58.22-.95v-1.01c0-.38-.07-.7-.22-.95-.15-.25-.35-.44-.62-.57s-.59-.2-.97-.2h-3.74ZM44.23,213.65h-1.56c-.43,0-.81-.09-1.14-.29-.32-.21-.58-.5-.77-.88-.18-.38-.26-.83-.26-1.34v-.24l.7.77h-.79c-.19.73-.59,1.29-1.19,1.67-.59.38-1.31.57-2.16.57-1.17,0-2.08-.31-2.71-.92-.63-.63-.95-1.45-.95-2.46,0-.79.19-1.44.57-1.96.4-.51.96-.9,1.69-1.17.73-.26,1.61-.4,2.64-.4h1.96v-.84c0-.63-.17-1.12-.51-1.47-.34-.37-.88-.55-1.63-.55-.66,0-1.2.15-1.61.44-.4.28-.73.62-1.01,1.01l-1.67-1.5c.43-.66.99-1.19,1.69-1.58.7-.41,1.64-.62,2.79-.62,1.54,0,2.71.36,3.52,1.08.82.7,1.23,1.71,1.23,3.01v5.41h1.14v2.24ZM40.27,208.7h-1.8c-.73,0-1.28.12-1.65.37-.37.24-.55.58-.55,1.03v.37c0,.46.15.8.46,1.03.31.24.73.35,1.28.35.43,0,.81-.06,1.14-.18.34-.13.61-.32.81-.57.21-.25.31-.55.31-.9v-1.52ZM52.04,213.65h-2.02c-.97,0-1.71-.25-2.22-.75-.5-.51-.75-1.24-.75-2.18v-6.34h-1.69v-2.22h.88c.43,0,.71-.1.86-.29.16-.21.24-.51.24-.9v-1.96h2.53v3.15h2.35v2.22h-2.35v7.02h2.18v2.24ZM56.06,200.5c-.57,0-.99-.13-1.25-.4-.26-.28-.4-.62-.4-1.01v-.44c0-.41.13-.75.4-1.01.26-.26.68-.4,1.25-.4s.99.13,1.25.4c.26.26.4.6.4,1.01v.44c0,.4-.13.73-.4,1.01-.26.26-.68.4-1.25.4ZM54.65,213.65v-11.48h2.82v11.48h-2.82ZM65.35,213.92c-1.13,0-2.1-.24-2.9-.73-.81-.5-1.43-1.2-1.87-2.09-.43-.91-.64-1.98-.64-3.21s.21-2.25.64-3.15c.43-.91,1.03-1.61,1.83-2.09.79-.5,1.75-.75,2.86-.75,1.2,0,2.19.26,2.95.79.78.53,1.35,1.23,1.72,2.11.38.87.57,1.83.57,2.88v.92h-7.63v.29c0,.82.23,1.49.7,2,.47.51,1.17.77,2.09.77.69,0,1.26-.15,1.72-.44.45-.31.86-.68,1.21-1.12l1.52,1.69c-.47.63-1.11,1.14-1.94,1.54-.81.38-1.75.57-2.82.57ZM65.31,204.02c-.5,0-.93.12-1.3.35-.37.22-.65.54-.86.95-.19.4-.29.86-.29,1.39v.18h4.71v-.2c0-.54-.09-1-.26-1.39-.18-.4-.43-.7-.77-.92-.34-.23-.75-.35-1.23-.35ZM75.8,213.65h-2.82v-11.48h2.82v1.91h.11c.23-.62.6-1.13,1.1-1.54.51-.43,1.22-.64,2.11-.64,1.17,0,2.08.4,2.71,1.19.65.78.97,1.88.97,3.3v7.26h-2.82v-6.97c0-.81-.15-1.41-.44-1.83-.29-.43-.78-.64-1.45-.64-.38,0-.75.07-1.1.22-.35.13-.64.34-.86.62-.22.26-.33.6-.33,1.01v7.59ZM91.52,213.65h-2.02c-.97,0-1.71-.25-2.22-.75-.5-.51-.75-1.24-.75-2.18v-6.34h-1.69v-2.22h.88c.43,0,.71-.1.86-.29.16-.21.24-.51.24-.9v-1.96h2.53v3.15h2.35v2.22h-2.35v7.02h2.18v2.24ZM97.9,213.92c-1.1,0-2.02-.18-2.77-.55-.75-.38-1.41-.9-1.98-1.56l1.72-1.67c.43.48.89.87,1.39,1.14.51.28,1.1.42,1.76.42s1.16-.12,1.45-.35c.31-.23.46-.56.46-.97,0-.34-.11-.6-.33-.79-.21-.21-.56-.34-1.08-.42l-1.14-.15c-.82-.1-1.52-.29-2.09-.57-.57-.28-1-.66-1.3-1.14-.29-.48-.44-1.07-.44-1.76,0-1.11.4-1.99,1.19-2.64.81-.66,1.86-.99,3.17-.99.75,0,1.39.07,1.91.22.54.13,1.02.34,1.43.62.41.26.79.59,1.14.97l-1.65,1.65c-.34-.35-.74-.65-1.21-.88-.47-.23-.98-.35-1.54-.35-.59,0-1.03.11-1.32.33-.28.21-.42.49-.42.86s.11.68.33.88c.23.19.62.33,1.17.42l1.17.15c1.26.18,2.19.55,2.79,1.12.62.56.92,1.31.92,2.27,0,.73-.2,1.39-.59,1.96-.38.57-.93,1.02-1.65,1.34-.7.31-1.53.46-2.49.46ZM114.87,213.92c-1.08,0-2.03-.24-2.84-.73-.79-.5-1.41-1.2-1.85-2.09-.43-.91-.64-1.98-.64-3.21s.21-2.29.64-3.17c.44-.89,1.06-1.58,1.85-2.07.81-.5,1.75-.75,2.84-.75s2.05.25,2.84.75c.81.48,1.42,1.17,1.85,2.07.44.88.66,1.94.66,3.17s-.22,2.3-.66,3.21c-.42.89-1.04,1.59-1.85,2.09-.79.48-1.74.73-2.84.73ZM114.87,211.65c.75,0,1.33-.23,1.76-.68.42-.47.64-1.14.64-2v-2.13c0-.87-.21-1.52-.64-1.98-.43-.45-1.01-.68-1.76-.68s-1.3.23-1.74.68c-.43.46-.64,1.11-.64,1.98v2.13c0,.87.21,1.53.64,2,.44.46,1.02.68,1.74.68ZM125.53,213.65h-2.82v-11.48h2.82v1.91h.11c.24-.62.6-1.13,1.1-1.54.51-.43,1.22-.64,2.11-.64,1.17,0,2.08.4,2.71,1.19.65.78.97,1.88.97,3.3v7.26h-2.82v-6.97c0-.81-.15-1.41-.44-1.83-.29-.43-.78-.64-1.45-.64-.38,0-.75.07-1.1.22-.35.13-.64.34-.86.62-.22.26-.33.6-.33,1.01v7.59ZM147.05,213.92c-1.33,0-2.51-.3-3.52-.9-1.01-.6-1.8-1.49-2.35-2.66-.54-1.19-.81-2.65-.81-4.38s.27-3.18.81-4.36c.56-1.19,1.34-2.08,2.35-2.68,1.01-.6,2.19-.9,3.52-.9s2.52.3,3.52.9c1.01.6,1.79,1.5,2.33,2.68.56,1.17.84,2.63.84,4.36s-.28,3.19-.84,4.38c-.54,1.17-1.32,2.06-2.33,2.66-1,.6-2.17.9-3.52.9ZM147.05,211.34c.75,0,1.39-.17,1.91-.51.54-.34.96-.81,1.25-1.43.29-.63.44-1.38.44-2.24v-2.38c0-.88-.15-1.63-.44-2.24-.29-.62-.71-1.09-1.25-1.43-.53-.34-1.17-.51-1.91-.51s-1.35.17-1.89.51c-.54.34-.97.81-1.28,1.43-.29.62-.44,1.36-.44,2.24v2.38c0,.87.15,1.61.44,2.24.31.62.73,1.09,1.28,1.43.54.34,1.17.51,1.89.51ZM159.33,213.65h-2.82v-11.48h2.82v2.38h.11c.1-.41.27-.79.51-1.14.25-.37.58-.66.99-.88.43-.23.94-.35,1.54-.35h.62v2.66h-.88c-.63,0-1.17.07-1.61.2-.43.12-.75.31-.97.57-.21.25-.31.59-.31,1.01v7.04ZM175.12,214.62c0,.79-.2,1.46-.59,2-.4.56-1.03.98-1.91,1.25-.88.29-2.05.44-3.52.44-1.29,0-2.33-.11-3.12-.33-.78-.2-1.34-.51-1.69-.92-.35-.41-.53-.89-.53-1.45,0-.65.18-1.15.55-1.52.37-.35.87-.58,1.5-.68v-.24c-.47-.13-.84-.37-1.1-.7-.25-.34-.37-.74-.37-1.21,0-.59.21-1.04.64-1.36.43-.32.92-.54,1.47-.66v-.09c-.69-.32-1.21-.77-1.56-1.34-.35-.57-.53-1.24-.53-2s.18-1.46.53-2.05c.37-.59.9-1.04,1.61-1.36.72-.32,1.59-.48,2.62-.48.38,0,.74.02,1.08.07.34.04.65.12.92.22v-.37c0-.56.14-.97.42-1.25.28-.28.68-.42,1.21-.42h1.78v2.16h-2.44v.31c.6.34,1.05.79,1.34,1.34.29.54.44,1.16.44,1.85,0,.76-.18,1.44-.55,2.02-.35.59-.88,1.04-1.58,1.36-.7.31-1.58.46-2.62.46-.32,0-.64-.01-.95-.04-.29-.04-.56-.1-.81-.15-.22.1-.41.24-.57.42-.16.16-.24.37-.24.62,0,.29.12.51.37.66.25.13.62.2,1.12.2h3.08c1.41,0,2.43.29,3.06.86.65.57.97,1.38.97,2.42ZM172.48,214.95c0-.37-.15-.65-.44-.86-.29-.21-.8-.31-1.52-.31h-3.92c-.2.16-.36.35-.46.55-.09.21-.13.42-.13.64,0,.44.18.79.55,1.03.37.25.99.37,1.87.37h1.41c.91,0,1.58-.12,2-.35.43-.23.64-.59.64-1.08ZM169.1,207.73c.68,0,1.19-.15,1.54-.44.35-.31.53-.75.53-1.32v-.37c0-.59-.18-1.03-.53-1.32-.35-.29-.86-.44-1.54-.44s-1.17.15-1.54.44c-.35.29-.53.73-.53,1.32v.37c0,.57.18,1.01.53,1.32.37.29.88.44,1.54.44ZM186.72,213.65h-1.56c-.43,0-.81-.09-1.14-.29-.32-.21-.58-.5-.77-.88-.18-.38-.26-.83-.26-1.34v-.24l.7.77h-.79c-.19.73-.59,1.29-1.19,1.67-.59.38-1.31.57-2.16.57-1.17,0-2.08-.31-2.71-.92-.63-.63-.95-1.45-.95-2.46,0-.79.19-1.44.57-1.96.4-.51.96-.9,1.69-1.17.73-.26,1.61-.4,2.64-.4h1.96v-.84c0-.63-.17-1.12-.51-1.47-.34-.37-.88-.55-1.63-.55-.66,0-1.2.15-1.61.44-.4.28-.73.62-1.01,1.01l-1.67-1.5c.43-.66.99-1.19,1.69-1.58.7-.41,1.64-.62,2.79-.62,1.54,0,2.71.36,3.52,1.08.82.7,1.23,1.71,1.23,3.01v5.41h1.14v2.24ZM182.76,208.7h-1.8c-.73,0-1.28.12-1.65.37-.37.24-.55.58-.55,1.03v.37c0,.46.15.8.46,1.03.31.24.73.35,1.28.35.43,0,.81-.06,1.14-.18.34-.13.61-.32.81-.57.21-.25.31-.55.31-.9v-1.52ZM191.81,213.65h-2.82v-11.48h2.82v1.91h.11c.23-.62.6-1.13,1.1-1.54.51-.43,1.22-.64,2.11-.64,1.17,0,2.07.4,2.71,1.19.65.78.97,1.88.97,3.3v7.26h-2.82v-6.97c0-.81-.15-1.41-.44-1.83-.29-.43-.78-.64-1.45-.64-.38,0-.75.07-1.1.22-.35.13-.64.34-.86.62-.22.26-.33.6-.33,1.01v7.59ZM207.3,213.65v-15.36h5.59c1.33,0,2.5.29,3.5.86,1,.57,1.77,1.43,2.31,2.57.54,1.13.81,2.54.81,4.25s-.27,3.12-.81,4.27c-.54,1.13-1.31,1.98-2.31,2.55-1,.57-2.16.86-3.5.86h-5.59ZM210.21,211.08h2.68c.72,0,1.34-.14,1.87-.42.53-.29.94-.73,1.23-1.3.29-.59.44-1.31.44-2.18v-2.42c0-.88-.15-1.61-.44-2.18-.29-.57-.7-1-1.23-1.28-.53-.29-1.15-.44-1.87-.44h-2.68v10.21ZM226.85,213.92c-1.09,0-2.03-.24-2.84-.73-.79-.5-1.41-1.2-1.85-2.09-.43-.91-.64-1.98-.64-3.21s.21-2.29.64-3.17c.44-.89,1.06-1.58,1.85-2.07.81-.5,1.75-.75,2.84-.75s2.05.25,2.84.75c.81.48,1.42,1.17,1.85,2.07.44.88.66,1.94.66,3.17s-.22,2.3-.66,3.21c-.43.89-1.04,1.59-1.85,2.09-.79.48-1.74.73-2.84.73ZM226.85,211.65c.75,0,1.33-.23,1.76-.68.43-.47.64-1.14.64-2v-2.13c0-.87-.21-1.52-.64-1.98-.43-.45-1.01-.68-1.76-.68s-1.3.23-1.74.68c-.43.46-.64,1.11-.64,1.98v2.13c0,.87.21,1.53.64,2,.44.46,1.02.68,1.74.68ZM237.51,213.65h-2.82v-11.48h2.82v1.91h.11c.24-.62.6-1.13,1.1-1.54.51-.43,1.22-.64,2.11-.64,1.17,0,2.08.4,2.71,1.19.65.78.97,1.88.97,3.3v7.26h-2.82v-6.97c0-.81-.15-1.41-.44-1.83-.29-.43-.78-.64-1.45-.64-.38,0-.75.07-1.1.22-.35.13-.64.34-.86.62-.22.26-.33.6-.33,1.01v7.59ZM252.18,213.92c-1.09,0-2.03-.24-2.84-.73-.79-.5-1.41-1.2-1.85-2.09-.43-.91-.64-1.98-.64-3.21s.21-2.29.64-3.17c.44-.89,1.06-1.58,1.85-2.07.81-.5,1.75-.75,2.84-.75s2.05.25,2.84.75c.81.48,1.42,1.17,1.85,2.07.44.88.66,1.94.66,3.17s-.22,2.3-.66,3.21c-.43.89-1.04,1.59-1.85,2.09-.79.48-1.74.73-2.84.73ZM252.18,211.65c.75,0,1.33-.23,1.76-.68.43-.47.64-1.14.64-2v-2.13c0-.87-.21-1.52-.64-1.98-.43-.45-1.01-.68-1.76-.68s-1.3.23-1.74.68c-.43.46-.64,1.11-.64,1.98v2.13c0,.87.21,1.53.64,2,.44.46,1.02.68,1.74.68ZM262.84,213.65h-2.82v-11.48h2.82v2.38h.11c.1-.41.27-.79.51-1.14.25-.37.58-.66.99-.88.42-.23.94-.35,1.54-.35h.62v2.66h-.88c-.63,0-1.17.07-1.61.2-.42.12-.75.31-.97.57-.21.25-.31.59-.31,1.01v7.04ZM282.99,213.65h-8.95v-15.36h2.9v12.78h6.05v2.57ZM286.74,200.5c-.57,0-.99-.13-1.25-.4-.26-.28-.4-.62-.4-1.01v-.44c0-.41.13-.75.4-1.01.26-.26.68-.4,1.25-.4s.99.13,1.25.4c.26.26.4.6.4,1.01v.44c0,.4-.13.73-.4,1.01-.26.26-.68.4-1.25.4ZM285.33,213.65v-11.48h2.82v11.48h-2.82ZM295.15,213.92c-1.1,0-2.02-.18-2.77-.55-.75-.38-1.41-.9-1.98-1.56l1.72-1.67c.43.48.89.87,1.39,1.14.51.28,1.1.42,1.76.42s1.16-.12,1.45-.35c.31-.23.46-.56.46-.97,0-.34-.11-.6-.33-.79-.21-.21-.56-.34-1.08-.42l-1.14-.15c-.82-.1-1.52-.29-2.09-.57-.57-.28-1-.66-1.3-1.14-.29-.48-.44-1.07-.44-1.76,0-1.11.4-1.99,1.19-2.64.81-.66,1.86-.99,3.17-.99.75,0,1.39.07,1.91.22.54.13,1.02.34,1.43.62.41.26.79.59,1.14.97l-1.65,1.65c-.34-.35-.74-.65-1.21-.88-.47-.23-.98-.35-1.54-.35-.59,0-1.03.11-1.32.33-.28.21-.42.49-.42.86s.11.68.33.88c.23.19.62.33,1.17.42l1.17.15c1.26.18,2.19.55,2.79,1.12.62.56.92,1.31.92,2.27,0,.73-.2,1.39-.59,1.96-.38.57-.93,1.02-1.65,1.34-.7.31-1.53.46-2.49.46ZM307.81,213.65h-2.02c-.97,0-1.71-.25-2.22-.75-.5-.51-.75-1.24-.75-2.18v-6.34h-1.69v-2.22h.88c.43,0,.71-.1.86-.29.16-.21.24-.51.24-.9v-1.96h2.53v3.15h2.35v2.22h-2.35v7.02h2.18v2.24ZM312.08,210.26c.62,0,1.06.15,1.34.46.28.31.42.7.42,1.17v.4c0,.81-.2,1.62-.62,2.44-.4.84-.94,1.53-1.63,2.07h-1.98c.48-.48.9-.95,1.23-1.41.35-.45.61-.97.77-1.54-.44-.09-.77-.27-.99-.55-.2-.28-.31-.62-.31-1.01v-.4c0-.47.15-.86.44-1.17.29-.31.73-.46,1.32-.46ZM332.49,213.65h-10.12v-15.36h10.12v2.57h-7.22v3.74h6.38v2.55h-6.38v3.92h7.22v2.57ZM338.21,213.65h-2.82v-11.48h2.82v1.91h.11c.23-.62.6-1.13,1.1-1.54.51-.43,1.22-.64,2.11-.64,1.17,0,2.08.4,2.71,1.19.65.78.97,1.88.97,3.3v7.26h-2.82v-6.97c0-.81-.15-1.41-.44-1.83-.29-.43-.78-.64-1.45-.64-.38,0-.75.07-1.1.22-.35.13-.64.34-.86.62-.22.26-.33.6-.33,1.01v7.59ZM355.45,213.65v-1.91h-.11c-.21.66-.59,1.19-1.17,1.58-.57.4-1.24.59-2,.59-.95,0-1.77-.23-2.44-.7-.66-.47-1.17-1.15-1.52-2.05-.35-.91-.53-2-.53-3.28s.18-2.35.53-3.23c.35-.89.86-1.58,1.52-2.05.67-.47,1.49-.7,2.44-.7.76,0,1.43.2,2,.59.59.38.98.9,1.17,1.56h.11v-6.69h2.82v16.28h-2.82ZM353.08,211.58c.45,0,.86-.07,1.21-.22.37-.15.65-.36.86-.64.2-.28.31-.62.31-1.01v-3.65c0-.37-.1-.69-.31-.97-.21-.28-.49-.49-.86-.64-.35-.16-.76-.24-1.21-.24-.72,0-1.31.25-1.76.75-.46.48-.68,1.14-.68,1.96v1.98c0,.81.23,1.46.68,1.96.45.48,1.04.73,1.76.73ZM371.27,213.92c-1.08,0-2.03-.24-2.84-.73-.79-.5-1.41-1.2-1.85-2.09-.42-.91-.64-1.98-.64-3.21s.21-2.29.64-3.17c.44-.89,1.06-1.58,1.85-2.07.81-.5,1.75-.75,2.84-.75s2.05.25,2.84.75c.81.48,1.42,1.17,1.85,2.07.44.88.66,1.94.66,3.17s-.22,2.3-.66,3.21c-.43.89-1.04,1.59-1.85,2.09-.79.48-1.74.73-2.84.73ZM371.27,211.65c.75,0,1.33-.23,1.76-.68.43-.47.64-1.14.64-2v-2.13c0-.87-.21-1.52-.64-1.98-.43-.45-1.01-.68-1.76-.68s-1.3.23-1.74.68c-.42.46-.64,1.11-.64,1.98v2.13c0,.87.21,1.53.64,2,.44.46,1.02.68,1.74.68ZM379.55,213.65v-9.26h-1.69v-2.22h1.69v-1.65c0-1.01.27-1.79.81-2.33.54-.54,1.33-.81,2.35-.81h2v2.24h-2.35v2.55h2.35v2.22h-2.35v9.26h-2.82ZM402.26,211.21v2.44h-10.65v-2.68l4.82-4.22c.82-.7,1.42-1.35,1.8-1.94.38-.59.57-1.22.57-1.89v-.29c0-.67-.22-1.19-.66-1.54-.44-.37-.98-.55-1.61-.55-.78,0-1.38.23-1.8.68-.41.44-.7.98-.88,1.61l-2.51-.97c.22-.69.56-1.32,1.01-1.89.45-.57,1.05-1.03,1.78-1.39.73-.37,1.61-.55,2.64-.55,1.09,0,2,.2,2.75.59.76.4,1.34.94,1.74,1.63.4.68.59,1.46.59,2.35s-.18,1.61-.53,2.29c-.34.68-.81,1.31-1.41,1.89-.59.59-1.23,1.17-1.94,1.76l-3.23,2.66h7.5ZM410.04,213.92c-1.31,0-2.38-.32-3.23-.95-.85-.63-1.48-1.53-1.89-2.71-.4-1.19-.59-2.62-.59-4.29s.2-3.1.59-4.29c.41-1.19,1.04-2.09,1.89-2.71.85-.63,1.93-.95,3.23-.95s2.4.32,3.23.95c.85.62,1.47,1.52,1.87,2.71.41,1.19.62,2.62.62,4.29s-.21,3.1-.62,4.29c-.4,1.17-1.02,2.08-1.87,2.71-.84.63-1.91.95-3.23.95ZM410.04,211.47c.64,0,1.16-.17,1.54-.51.38-.34.66-.81.84-1.43.18-.62.26-1.34.26-2.18v-2.77c0-.85-.09-1.58-.26-2.18-.18-.62-.45-1.09-.84-1.43-.38-.34-.89-.51-1.54-.51s-1.16.17-1.54.51c-.38.34-.66.81-.84,1.43-.18.6-.26,1.33-.26,2.18v2.77c0,.84.09,1.56.26,2.18.18.62.45,1.09.84,1.43.38.34.89.51,1.54.51ZM428.64,211.21v2.44h-10.65v-2.68l4.82-4.22c.82-.7,1.42-1.35,1.8-1.94.38-.59.57-1.22.57-1.89v-.29c0-.67-.22-1.19-.66-1.54-.44-.37-.98-.55-1.61-.55-.78,0-1.38.23-1.8.68-.41.44-.7.98-.88,1.61l-2.51-.97c.22-.69.56-1.32,1.01-1.89.45-.57,1.05-1.03,1.78-1.39.73-.37,1.61-.55,2.64-.55,1.09,0,2,.2,2.75.59.76.4,1.34.94,1.74,1.63.4.68.59,1.46.59,2.35s-.18,1.61-.53,2.29c-.34.68-.81,1.31-1.41,1.89-.59.59-1.23,1.17-1.94,1.76l-3.23,2.66h7.5ZM434.07,204.5h1.52c.88,0,1.52-.18,1.94-.55.42-.37.64-.82.64-1.36v-.15c0-.63-.21-1.12-.62-1.47-.41-.37-.96-.55-1.65-.55s-1.28.16-1.8.48c-.53.32-.98.78-1.34,1.36l-1.85-1.67c.35-.48.76-.92,1.21-1.3.47-.38,1.01-.68,1.63-.9.63-.23,1.38-.35,2.24-.35,1.03,0,1.93.17,2.71.51.79.32,1.41.79,1.85,1.39.44.59.66,1.29.66,2.11,0,.98-.29,1.78-.88,2.38-.57.59-1.26.96-2.07,1.12v.13c.6.1,1.14.32,1.63.64.48.31.87.72,1.14,1.23.29.51.44,1.14.44,1.87,0,.89-.24,1.69-.73,2.38-.47.68-1.13,1.2-1.98,1.58-.84.37-1.82.55-2.95.55-1,0-1.84-.13-2.53-.4-.69-.26-1.27-.62-1.74-1.06s-.86-.91-1.19-1.41l2.13-1.63c.35.62.78,1.12,1.28,1.52.51.4,1.2.59,2.05.59s1.5-.2,1.96-.62c.46-.43.68-.99.68-1.69v-.15c0-.7-.25-1.24-.75-1.61-.5-.37-1.2-.55-2.11-.55h-1.52v-2.42Z"/>
    <path class="st5" d="M516.03,214.65v-15.36h5.59c1.33,0,2.5.29,3.5.86,1,.57,1.77,1.43,2.31,2.57.54,1.13.81,2.54.81,4.25s-.27,3.12-.81,4.27c-.54,1.13-1.31,1.98-2.31,2.55-1,.57-2.16.86-3.5.86h-5.59ZM518.93,212.08h2.68c.72,0,1.34-.14,1.87-.42.53-.29.94-.73,1.23-1.3.29-.59.44-1.31.44-2.18v-2.42c0-.88-.15-1.61-.44-2.18-.29-.57-.7-1-1.23-1.28-.53-.29-1.15-.44-1.87-.44h-2.68v10.21ZM535.66,214.92c-1.13,0-2.1-.24-2.9-.73-.81-.5-1.43-1.19-1.87-2.09-.43-.91-.64-1.98-.64-3.21s.21-2.25.64-3.15c.42-.91,1.03-1.61,1.83-2.09.79-.5,1.74-.75,2.86-.75,1.2,0,2.18.26,2.95.79.78.53,1.35,1.23,1.72,2.11.38.87.57,1.83.57,2.88v.92h-7.63v.29c0,.82.23,1.49.7,2,.47.51,1.17.77,2.09.77.69,0,1.26-.15,1.72-.44.45-.31.86-.68,1.21-1.12l1.52,1.69c-.47.63-1.11,1.14-1.94,1.54-.81.38-1.75.57-2.82.57ZM535.62,205.02c-.5,0-.93.12-1.3.35-.37.22-.65.54-.86.95-.19.4-.29.86-.29,1.39v.18h4.71v-.2c0-.54-.09-1-.26-1.39-.18-.4-.43-.7-.77-.92-.34-.23-.75-.35-1.23-.35ZM547.82,214.92c-1.7,0-3.01-.54-3.94-1.63-.91-1.09-1.36-2.55-1.36-4.4s.45-3.29,1.36-4.36c.92-1.09,2.24-1.63,3.94-1.63,1.16,0,2.11.26,2.86.77.76.51,1.31,1.22,1.65,2.13l-2.31,1.03c-.13-.48-.38-.88-.75-1.19-.37-.32-.85-.48-1.45-.48-.78,0-1.36.25-1.76.75-.4.48-.59,1.14-.59,1.96v2.09c0,.79.2,1.44.59,1.94.4.5.98.75,1.76.75.66,0,1.17-.17,1.54-.51.38-.35.67-.78.88-1.3l2.16,1.03c-.37,1.01-.95,1.78-1.74,2.29-.78.5-1.72.75-2.84.75ZM559.1,214.92c-1.13,0-2.1-.24-2.9-.73-.81-.5-1.43-1.19-1.87-2.09-.42-.91-.64-1.98-.64-3.21s.21-2.25.64-3.15c.43-.91,1.03-1.61,1.83-2.09.79-.5,1.75-.75,2.86-.75,1.2,0,2.19.26,2.95.79.78.53,1.35,1.23,1.72,2.11.38.87.57,1.83.57,2.88v.92h-7.63v.29c0,.82.24,1.49.7,2,.47.51,1.17.77,2.09.77.69,0,1.26-.15,1.72-.44.46-.31.86-.68,1.21-1.12l1.52,1.69c-.47.63-1.11,1.14-1.94,1.54-.81.38-1.74.57-2.82.57ZM559.05,205.02c-.5,0-.93.12-1.3.35-.37.22-.65.54-.86.95-.19.4-.29.86-.29,1.39v.18h4.71v-.2c0-.54-.09-1-.26-1.39-.18-.4-.43-.7-.77-.92-.34-.23-.75-.35-1.23-.35ZM576.73,214.65h-1.56c-.43,0-.81-.1-1.14-.29-.32-.21-.58-.5-.77-.88-.18-.38-.26-.83-.26-1.34v-.24l.7.77h-.79c-.19.73-.59,1.29-1.19,1.67-.59.38-1.31.57-2.16.57-1.17,0-2.08-.31-2.71-.92-.63-.63-.95-1.45-.95-2.46,0-.79.19-1.44.57-1.96.4-.51.96-.9,1.69-1.17.73-.26,1.61-.4,2.64-.4h1.96v-.84c0-.63-.17-1.12-.51-1.47-.34-.37-.88-.55-1.63-.55-.66,0-1.2.15-1.61.44-.4.28-.73.62-1.01,1.01l-1.67-1.5c.42-.66.99-1.19,1.69-1.58.7-.41,1.64-.62,2.79-.62,1.54,0,2.71.36,3.52,1.08.82.7,1.23,1.71,1.23,3.01v5.41h1.14v2.24ZM572.78,209.71h-1.8c-.73,0-1.28.12-1.65.37-.37.24-.55.58-.55,1.03v.37c0,.46.15.8.46,1.03.31.24.73.35,1.28.35.43,0,.81-.06,1.14-.18.34-.13.61-.32.81-.57.21-.25.31-.55.31-.9v-1.52ZM582.78,214.92c-1.1,0-2.02-.18-2.77-.55-.75-.38-1.41-.9-1.98-1.56l1.72-1.67c.42.48.89.87,1.39,1.14.51.28,1.1.42,1.76.42s1.16-.12,1.45-.35c.31-.23.46-.56.46-.97,0-.34-.11-.6-.33-.79-.2-.21-.56-.34-1.08-.42l-1.14-.15c-.82-.1-1.52-.29-2.09-.57-.57-.28-1.01-.66-1.3-1.14-.29-.48-.44-1.07-.44-1.76,0-1.11.4-1.99,1.19-2.64.81-.66,1.86-.99,3.17-.99.75,0,1.39.07,1.91.22.54.13,1.02.34,1.43.62.41.26.79.59,1.14.97l-1.65,1.65c-.34-.35-.74-.64-1.21-.88-.47-.23-.98-.35-1.54-.35-.59,0-1.03.11-1.32.33-.28.21-.42.49-.42.86s.11.68.33.88c.23.19.62.33,1.17.42l1.17.15c1.26.18,2.19.55,2.79,1.12.62.56.92,1.31.92,2.27,0,.73-.2,1.39-.59,1.96-.38.57-.93,1.02-1.65,1.34-.7.31-1.53.46-2.49.46ZM594.63,214.92c-1.13,0-2.1-.24-2.9-.73-.81-.5-1.43-1.19-1.87-2.09-.42-.91-.64-1.98-.64-3.21s.21-2.25.64-3.15c.43-.91,1.03-1.61,1.83-2.09.79-.5,1.75-.75,2.86-.75,1.2,0,2.19.26,2.95.79.78.53,1.35,1.23,1.72,2.11.38.87.57,1.83.57,2.88v.92h-7.63v.29c0,.82.23,1.49.7,2,.47.51,1.17.77,2.09.77.69,0,1.26-.15,1.72-.44.45-.31.86-.68,1.21-1.12l1.52,1.69c-.47.63-1.11,1.14-1.94,1.54-.81.38-1.74.57-2.82.57ZM594.59,205.02c-.5,0-.93.12-1.3.35-.37.22-.65.54-.86.95-.19.4-.29.86-.29,1.39v.18h4.71v-.2c0-.54-.09-1-.26-1.39-.18-.4-.43-.7-.77-.92-.34-.23-.75-.35-1.23-.35ZM609.39,214.65v-1.91h-.11c-.21.66-.59,1.19-1.17,1.58s-1.24.59-2,.59c-.95,0-1.77-.23-2.44-.7-.66-.47-1.17-1.15-1.52-2.05-.35-.91-.53-2-.53-3.28s.18-2.35.53-3.23c.35-.89.86-1.58,1.52-2.05.67-.47,1.49-.7,2.44-.7.76,0,1.43.2,2,.59.59.38.97.9,1.17,1.56h.11v-6.69h2.82v16.28h-2.82ZM607.01,212.59c.45,0,.86-.07,1.21-.22.37-.15.65-.36.86-.64.2-.28.31-.62.31-1.01v-3.65c0-.37-.1-.69-.31-.97-.21-.28-.49-.49-.86-.64-.35-.16-.76-.24-1.21-.24-.72,0-1.31.25-1.76.75-.46.48-.68,1.14-.68,1.96v1.98c0,.81.23,1.46.68,1.96.45.48,1.04.73,1.76.73ZM620.83,214.65v-15.36h5.59c1.33,0,2.5.29,3.5.86,1,.57,1.77,1.43,2.31,2.57.54,1.13.81,2.54.81,4.25s-.27,3.12-.81,4.27c-.54,1.13-1.31,1.98-2.31,2.55-1,.57-2.16.86-3.5.86h-5.59ZM623.73,212.08h2.68c.72,0,1.34-.14,1.87-.42.53-.29.94-.73,1.23-1.3.29-.59.44-1.31.44-2.18v-2.42c0-.88-.15-1.61-.44-2.18-.29-.57-.7-1-1.23-1.28-.53-.29-1.15-.44-1.87-.44h-2.68v10.21ZM640.37,214.92c-1.09,0-2.03-.24-2.84-.73-.79-.5-1.41-1.19-1.85-2.09-.43-.91-.64-1.98-.64-3.21s.21-2.29.64-3.17c.44-.89,1.06-1.58,1.85-2.07.81-.5,1.75-.75,2.84-.75s2.05.25,2.84.75c.81.48,1.42,1.17,1.85,2.07.44.88.66,1.94.66,3.17s-.22,2.3-.66,3.21c-.43.9-1.04,1.59-1.85,2.09-.79.48-1.74.73-2.84.73ZM640.37,212.65c.75,0,1.33-.23,1.76-.68.42-.47.64-1.14.64-2v-2.13c0-.87-.21-1.53-.64-1.98-.43-.45-1.01-.68-1.76-.68s-1.3.23-1.74.68c-.43.46-.64,1.12-.64,1.98v2.13c0,.87.21,1.53.64,2,.44.46,1.02.68,1.74.68ZM651.03,214.65h-2.82v-11.48h2.82v1.91h.11c.23-.62.6-1.13,1.1-1.54.51-.43,1.22-.64,2.11-.64,1.17,0,2.07.4,2.71,1.19.64.78.97,1.88.97,3.3v7.26h-2.82v-6.97c0-.81-.15-1.41-.44-1.83-.29-.43-.78-.64-1.45-.64-.38,0-.75.07-1.1.22-.35.13-.64.34-.86.62-.22.26-.33.6-.33,1.01v7.59ZM665.7,214.92c-1.09,0-2.03-.24-2.84-.73-.79-.5-1.41-1.19-1.85-2.09-.43-.91-.64-1.98-.64-3.21s.21-2.29.64-3.17c.44-.89,1.06-1.58,1.85-2.07.81-.5,1.75-.75,2.84-.75s2.05.25,2.84.75c.81.48,1.42,1.17,1.85,2.07.44.88.66,1.94.66,3.17s-.22,2.3-.66,3.21c-.43.9-1.04,1.59-1.85,2.09-.79.48-1.74.73-2.84.73ZM665.7,212.65c.75,0,1.33-.23,1.76-.68.42-.47.64-1.14.64-2v-2.13c0-.87-.21-1.53-.64-1.98-.43-.45-1.01-.68-1.76-.68s-1.3.23-1.74.68c-.43.46-.64,1.12-.64,1.98v2.13c0,.87.21,1.53.64,2,.44.46,1.02.68,1.74.68ZM676.36,214.65h-2.82v-11.48h2.82v2.38h.11c.1-.41.27-.79.51-1.14.25-.37.58-.66.99-.88.43-.23.94-.35,1.54-.35h.62v2.66h-.88c-.63,0-1.17.07-1.61.2-.43.12-.75.31-.97.57-.21.25-.31.59-.31,1.01v7.04ZM685.94,214.92c-1.1,0-2.02-.18-2.77-.55-.75-.38-1.41-.9-1.98-1.56l1.72-1.67c.42.48.89.87,1.39,1.14.51.28,1.1.42,1.76.42s1.16-.12,1.45-.35c.31-.23.46-.56.46-.97,0-.34-.11-.6-.33-.79-.21-.21-.57-.34-1.08-.42l-1.14-.15c-.82-.1-1.52-.29-2.09-.57-.57-.28-1.01-.66-1.3-1.14-.29-.48-.44-1.07-.44-1.76,0-1.11.4-1.99,1.19-2.64.81-.66,1.86-.99,3.17-.99.75,0,1.39.07,1.91.22.54.13,1.02.34,1.43.62.41.26.79.59,1.14.97l-1.65,1.65c-.34-.35-.74-.64-1.21-.88-.47-.23-.98-.35-1.54-.35-.59,0-1.03.11-1.32.33-.28.21-.42.49-.42.86s.11.68.33.88c.23.19.62.33,1.17.42l1.17.15c1.26.18,2.19.55,2.79,1.12.62.56.92,1.31.92,2.27,0,.73-.2,1.39-.59,1.96-.38.57-.93,1.02-1.65,1.34-.7.31-1.53.46-2.49.46ZM694.66,211.27c.62,0,1.06.15,1.34.46s.42.7.42,1.17v.4c0,.81-.2,1.62-.62,2.44-.4.84-.94,1.53-1.63,2.07h-1.98c.48-.48.9-.95,1.23-1.41.35-.45.61-.97.77-1.54-.44-.09-.77-.27-.99-.55-.21-.28-.31-.62-.31-1.01v-.4c0-.47.15-.86.44-1.17.29-.31.73-.46,1.32-.46ZM715.17,212.21v2.44h-10.65v-2.68l4.82-4.22c.82-.7,1.42-1.35,1.8-1.94.38-.59.57-1.22.57-1.89v-.29c0-.67-.22-1.19-.66-1.54-.44-.37-.97-.55-1.61-.55-.78,0-1.38.23-1.8.68-.41.44-.7.98-.88,1.61l-2.51-.97c.22-.69.56-1.32,1.01-1.89.45-.57,1.05-1.03,1.78-1.39.73-.37,1.61-.55,2.64-.55,1.09,0,2,.2,2.75.59.76.4,1.34.94,1.74,1.63.4.68.59,1.46.59,2.35s-.18,1.61-.53,2.29c-.34.68-.81,1.31-1.41,1.89-.59.59-1.23,1.17-1.94,1.76l-3.23,2.66h7.5ZM722.95,214.92c-1.31,0-2.38-.32-3.23-.95-.85-.63-1.48-1.53-1.89-2.71-.4-1.19-.59-2.62-.59-4.29s.2-3.1.59-4.29c.41-1.19,1.04-2.09,1.89-2.71.85-.63,1.93-.95,3.23-.95s2.4.32,3.23.95c.85.62,1.47,1.52,1.87,2.71.41,1.19.62,2.62.62,4.29s-.21,3.1-.62,4.29c-.4,1.17-1.02,2.08-1.87,2.71-.84.63-1.91.95-3.23.95ZM722.95,212.48c.64,0,1.16-.17,1.54-.51.38-.34.66-.81.84-1.43s.26-1.34.26-2.18v-2.77c0-.85-.09-1.58-.26-2.18-.18-.62-.46-1.09-.84-1.43-.38-.34-.9-.51-1.54-.51s-1.16.17-1.54.51c-.38.34-.66.81-.84,1.43-.18.6-.26,1.33-.26,2.18v2.77c0,.84.09,1.56.26,2.18.18.62.45,1.09.84,1.43.38.34.89.51,1.54.51ZM741.55,212.21v2.44h-10.65v-2.68l4.82-4.22c.82-.7,1.42-1.35,1.8-1.94.38-.59.57-1.22.57-1.89v-.29c0-.67-.22-1.19-.66-1.54-.44-.37-.97-.55-1.61-.55-.78,0-1.38.23-1.8.68-.41.44-.7.98-.88,1.61l-2.51-.97c.22-.69.56-1.32,1.01-1.89.45-.57,1.05-1.03,1.78-1.39.73-.37,1.61-.55,2.64-.55,1.09,0,2,.2,2.75.59.76.4,1.34.94,1.74,1.63.4.68.59,1.46.59,2.35s-.18,1.61-.53,2.29c-.34.68-.81,1.31-1.41,1.89-.59.59-1.23,1.17-1.94,1.76l-3.23,2.66h7.5ZM746.98,205.5h1.52c.88,0,1.52-.18,1.94-.55.42-.37.64-.82.64-1.36v-.15c0-.63-.21-1.12-.62-1.47-.41-.37-.96-.55-1.65-.55s-1.28.16-1.8.48c-.53.32-.98.78-1.34,1.36l-1.85-1.67c.35-.48.76-.92,1.21-1.3.47-.38,1.01-.68,1.63-.9.63-.23,1.38-.35,2.24-.35,1.03,0,1.93.17,2.71.51.79.32,1.41.79,1.85,1.39.44.59.66,1.29.66,2.11,0,.98-.29,1.77-.88,2.38-.57.59-1.26.96-2.07,1.12v.13c.6.1,1.14.32,1.63.64.48.31.86.72,1.14,1.23.29.51.44,1.14.44,1.87,0,.9-.24,1.69-.73,2.38-.47.68-1.13,1.2-1.98,1.58-.84.37-1.82.55-2.95.55-1,0-1.84-.13-2.53-.4-.69-.26-1.27-.62-1.74-1.06-.47-.44-.87-.91-1.19-1.41l2.13-1.63c.35.62.78,1.12,1.28,1.52.51.4,1.19.59,2.05.59s1.5-.21,1.96-.62c.45-.43.68-.99.68-1.69v-.15c0-.7-.25-1.24-.75-1.61-.5-.37-1.2-.55-2.11-.55h-1.52v-2.42Z"/>
    <path class="st4" d="M731.49,53.66c0-1.4,0-2.09-.17-2.66-.39-1.28-1.4-2.28-2.68-2.67-.57-.17-1.27-.17-2.67-.17h-5.03c-1.4,0-2.1,0-2.67.17-1.28.39-2.29,1.39-2.68,2.67-.17.57-.17,1.27-.17,2.66M727.97,40.16c0,2.49-2.02,4.5-4.52,4.5s-4.52-2.01-4.52-4.5,2.03-4.5,4.52-4.5,4.52,2.01,4.52,4.5Z"/>
    <path class="st4" d="M679.47,53.66c0-1.4,0-2.09-.17-2.66-.39-1.28-1.4-2.28-2.68-2.67-.57-.17-1.27-.17-2.67-.17h-5.03c-1.4,0-2.1,0-2.67.17-1.28.39-2.29,1.39-2.68,2.67-.17.57-.17,1.27-.17,2.66M675.95,40.16c0,2.49-2.02,4.5-4.52,4.5s-4.52-2.01-4.52-4.5,2.03-4.5,4.52-4.5,4.52,2.01,4.52,4.5Z"/>
    <path class="st4" d="M705.48,53.66c0-1.4,0-2.09-.17-2.66-.39-1.28-1.4-2.28-2.68-2.67-.57-.17-1.27-.17-2.68-.17h-5.03c-1.4,0-2.1,0-2.67.17-1.28.39-2.29,1.39-2.68,2.67-.17.57-.17,1.27-.17,2.66M701.96,40.16c0,2.49-2.03,4.5-4.52,4.5s-4.52-2.01-4.52-4.5,2.03-4.5,4.52-4.5,4.52,2.01,4.52,4.5Z"/>
    <path class="st4" d="M755.59,53.66c0-1.4,0-2.09-.17-2.66-.39-1.28-1.4-2.28-2.68-2.67-.57-.17-1.27-.17-2.67-.17h-5.03c-1.4,0-2.11,0-2.68.17-1.29.39-2.29,1.39-2.68,2.67-.17.57-.17,1.27-.17,2.66M752.07,40.16c0,2.49-2.03,4.5-4.52,4.5s-4.52-2.01-4.52-4.5,2.03-4.5,4.52-4.5,4.52,2.01,4.52,4.5Z"/>
    <path class="st4" d="M729.69,119.17c0-1.39,0-2.09-.17-2.66-.39-1.28-1.4-2.28-2.68-2.67-.57-.17-1.27-.17-2.67-.17h-5.03c-1.4,0-2.1,0-2.67.17-1.29.39-2.29,1.39-2.68,2.67-.17.57-.17,1.27-.17,2.66M726.17,105.67c0,2.49-2.03,4.5-4.52,4.5s-4.52-2.01-4.52-4.5,2.03-4.5,4.52-4.5,4.52,2.01,4.52,4.5Z"/>
    <path class="st4" d="M677.67,119.17c0-1.39,0-2.09-.17-2.66-.39-1.28-1.4-2.28-2.68-2.67-.57-.17-1.27-.17-2.67-.17h-5.03c-1.4,0-2.1,0-2.67.17-1.28.39-2.29,1.39-2.68,2.67-.17.57-.17,1.27-.17,2.66M674.15,105.67c0,2.49-2.02,4.5-4.52,4.5s-4.52-2.01-4.52-4.5,2.03-4.5,4.52-4.5,4.52,2.01,4.52,4.5Z"/>
    <path class="st4" d="M703.68,119.17c0-1.39,0-2.09-.17-2.66-.39-1.28-1.4-2.28-2.68-2.67-.57-.17-1.27-.17-2.68-.17h-5.03c-1.4,0-2.1,0-2.67.17-1.29.39-2.29,1.39-2.68,2.67-.17.57-.17,1.27-.17,2.66M700.16,105.67c0,2.49-2.02,4.5-4.52,4.5s-4.52-2.01-4.52-4.5,2.03-4.5,4.52-4.5,4.52,2.01,4.52,4.5Z"/>
    <path class="st4" d="M755.59,119.17c0-1.39,0-2.09-.17-2.66-.39-1.28-1.4-2.28-2.68-2.67-.57-.17-1.27-.17-2.67-.17h-5.03c-1.4,0-2.11,0-2.68.17-1.29.39-2.29,1.39-2.68,2.67-.17.57-.17,1.27-.17,2.66M752.07,105.67c0,2.49-2.03,4.5-4.52,4.5s-4.52-2.01-4.52-4.5,2.03-4.5,4.52-4.5,4.52,2.01,4.52,4.5Z"/>
    <path class="st4" d="M727.78,97.33c0-1.4,0-2.09-.17-2.66-.39-1.28-1.4-2.28-2.68-2.67-.57-.17-1.27-.17-2.67-.17h-5.03c-1.4,0-2.1,0-2.67.17-1.29.39-2.29,1.39-2.68,2.67-.17.57-.17,1.27-.17,2.66M724.26,83.83c0,2.49-2.03,4.5-4.52,4.5s-4.52-2.01-4.52-4.5,2.03-4.5,4.52-4.5,4.52,2.01,4.52,4.5Z"/>
    <path class="st4" d="M675.76,97.33c0-1.4,0-2.09-.17-2.66-.39-1.28-1.4-2.28-2.68-2.67-.57-.17-1.27-.17-2.67-.17h-5.03c-1.4,0-2.1,0-2.68.17-1.29.39-2.29,1.39-2.68,2.67-.17.57-.17,1.27-.17,2.66M672.24,83.83c0,2.49-2.03,4.5-4.52,4.5s-4.52-2.01-4.52-4.5,2.03-4.5,4.52-4.5,4.52,2.01,4.52,4.5Z"/>
    <path class="st4" d="M701.77,97.33c0-1.4,0-2.09-.17-2.66-.39-1.28-1.4-2.28-2.68-2.67-.57-.17-1.27-.17-2.68-.17h-5.03c-1.4,0-2.1,0-2.67.17-1.29.39-2.29,1.39-2.68,2.67-.17.57-.17,1.27-.17,2.66M698.25,83.83c0,2.49-2.02,4.5-4.52,4.5s-4.52-2.01-4.52-4.5,2.03-4.5,4.52-4.5,4.52,2.01,4.52,4.5Z"/>
    <path class="st4" d="M755.59,97.33c0-1.4,0-2.09-.17-2.66-.39-1.28-1.4-2.28-2.68-2.67-.57-.17-1.27-.17-2.67-.17h-5.03c-1.4,0-2.11,0-2.68.17-1.29.39-2.29,1.39-2.68,2.67-.17.57-.17,1.27-.17,2.66M752.07,83.83c0,2.49-2.03,4.5-4.52,4.5s-4.52-2.01-4.52-4.5,2.03-4.5,4.52-4.5,4.52,2.01,4.52,4.5Z"/>
    <path class="st4" d="M729.69,75.5c0-1.4,0-2.09-.17-2.66-.39-1.28-1.4-2.28-2.68-2.67-.57-.17-1.27-.17-2.67-.17h-5.03c-1.4,0-2.1,0-2.67.17-1.29.39-2.29,1.39-2.68,2.67-.17.57-.17,1.27-.17,2.66M726.17,62c0,2.49-2.03,4.5-4.52,4.5s-4.52-2.01-4.52-4.5,2.03-4.5,4.52-4.5,4.52,2.01,4.52,4.5Z"/>
    <path class="st4" d="M677.67,75.5c0-1.4,0-2.09-.17-2.66-.39-1.28-1.4-2.28-2.68-2.67-.57-.17-1.27-.17-2.67-.17h-5.03c-1.4,0-2.1,0-2.67.17-1.28.39-2.29,1.39-2.68,2.67-.17.57-.17,1.27-.17,2.66M674.15,62c0,2.49-2.02,4.5-4.52,4.5s-4.52-2.01-4.52-4.5,2.03-4.5,4.52-4.5,4.52,2.01,4.52,4.5Z"/>
    <path class="st4" d="M703.68,75.5c0-1.4,0-2.09-.17-2.66-.39-1.28-1.4-2.28-2.68-2.67-.57-.17-1.27-.17-2.68-.17h-5.03c-1.4,0-2.1,0-2.67.17-1.29.39-2.29,1.39-2.68,2.67-.17.57-.17,1.27-.17,2.66M700.16,62c0,2.49-2.02,4.5-4.52,4.5s-4.52-2.01-4.52-4.5,2.03-4.5,4.52-4.5,4.52,2.01,4.52,4.5Z"/>
    <path class="st4" d="M755.59,75.5c0-1.4,0-2.09-.17-2.66-.39-1.28-1.4-2.28-2.68-2.67-.57-.17-1.27-.17-2.67-.17h-5.03c-1.4,0-2.11,0-2.68.17-1.29.39-2.29,1.39-2.68,2.67-.17.57-.17,1.27-.17,2.66M752.07,62c0,2.49-2.03,4.5-4.52,4.5s-4.52-2.01-4.52-4.5,2.03-4.5,4.52-4.5,4.52,2.01,4.52,4.5Z"/>
    <g>
      <path class="st2" d="M39.53,186.19h-17.5v-4.36h6.77v-16.85h-.32l-5.11,6.7-3.46-2.7,6.01-7.92h8.28v20.77h5.33v4.36Z"/>
      <path class="st2" d="M51.05,186.62c-2.18,0-4-.52-5.44-1.55-1.44-1.03-2.51-2.51-3.2-4.45-.7-1.93-1.04-4.27-1.04-7s.35-5.08,1.04-7.02c.7-1.94,1.76-3.43,3.2-4.45,1.44-1.02,3.25-1.53,5.44-1.53s4.03.51,5.45,1.53c1.43,1.02,2.49,2.5,3.19,4.45.7,1.94,1.04,4.28,1.04,7.02s-.35,5.07-1.04,7c-.7,1.93-1.76,3.41-3.19,4.45-1.43,1.03-3.25,1.55-5.45,1.55ZM51.05,182.05c.96,0,1.72-.24,2.27-.72.55-.48.95-1.17,1.19-2.07.24-.9.36-1.99.36-3.26v-4.75c0-1.27-.12-2.36-.36-3.26-.24-.9-.64-1.59-1.19-2.07-.55-.48-1.31-.72-2.27-.72s-1.72.24-2.27.72c-.55.48-.95,1.17-1.19,2.07-.24.9-.36,1.99-.36,3.26v4.75c0,1.27.12,2.36.36,3.26.24.9.64,1.59,1.19,2.07.55.48,1.31.72,2.27.72Z"/>
      <path class="st2" d="M81.69,181.65v4.54h-17.78v-4.93l7.74-6.62c1.42-1.2,2.4-2.23,2.95-3.08.55-.85.83-1.81.83-2.86v-.5c0-.96-.35-1.68-1.04-2.16-.7-.48-1.45-.72-2.27-.72-1.18,0-2.08.35-2.7,1.04-.62.7-1.07,1.52-1.33,2.48l-4.72-1.8c.38-1.17.97-2.24,1.75-3.2.78-.96,1.79-1.73,3.04-2.32s2.74-.88,4.46-.88c1.82,0,3.37.33,4.64.99,1.27.66,2.24,1.55,2.92,2.68.67,1.13,1.01,2.42,1.01,3.89s-.31,2.72-.92,3.83c-.61,1.12-1.43,2.15-2.45,3.1-1.02.95-2.13,1.9-3.33,2.86l-4.68,3.67h11.88Z"/>
      <path class="st2" d="M89.03,180.21c1.08,0,1.88.27,2.39.81.52.54.77,1.23.77,2.07v.72c0,1.46-.35,2.9-1.06,4.32-.71,1.42-1.64,2.57-2.79,3.46h-3.6c.84-.79,1.56-1.58,2.16-2.36.6-.78,1.06-1.65,1.37-2.61-.82-.14-1.42-.47-1.82-.99-.4-.52-.59-1.12-.59-1.82v-.72c0-.84.26-1.53.77-2.07.52-.54,1.31-.81,2.39-.81Z"/>
      <path class="st2" d="M105.41,186.62c-1.97,0-3.65-.32-5.06-.95-1.4-.63-2.47-1.5-3.2-2.61-.73-1.1-1.1-2.35-1.1-3.74,0-1.61.45-2.92,1.35-3.94.9-1.02,2.09-1.73,3.58-2.14v-.29c-1.22-.46-2.23-1.15-3.01-2.09-.78-.94-1.17-2.14-1.17-3.6,0-1.92.74-3.5,2.23-4.75,1.49-1.25,3.61-1.87,6.37-1.87s4.91.62,6.39,1.87c1.48,1.25,2.21,2.83,2.21,4.75,0,1.46-.39,2.66-1.17,3.6-.78.94-1.78,1.63-3.01,2.09v.29c1.49.41,2.68,1.12,3.58,2.14.9,1.02,1.35,2.33,1.35,3.94,0,1.39-.37,2.64-1.1,3.74-.73,1.1-1.79,1.97-3.19,2.61-1.39.64-3.08.95-5.08.95ZM105.41,182.48c1.2,0,2.12-.29,2.75-.86.64-.58.95-1.36.95-2.34v-.72c0-.98-.32-1.76-.95-2.34-.64-.58-1.55-.86-2.75-.86s-2.09.29-2.74.86c-.65.58-.97,1.36-.97,2.34v.72c0,.98.32,1.76.97,2.34s1.56.86,2.74.86ZM105.41,171.39c1.13,0,2-.27,2.61-.81.61-.54.92-1.28.92-2.21v-.58c0-.94-.31-1.67-.92-2.21-.61-.54-1.48-.81-2.61-.81s-2,.27-2.61.81-.92,1.28-.92,2.21v.58c0,.94.31,1.67.92,2.21s1.48.81,2.61.81Z"/>
      <path class="st2" d="M137.09,186.19h-17.5v-4.36h6.77v-16.85h-.32l-5.11,6.7-3.46-2.7,6.01-7.92h8.28v20.77h5.33v4.36Z"/>
      <path class="st2" d="M149.47,186.19h-5.69l8.42-20.74h-7.85v4.57h-4.57v-8.96h17.78v4.68l-8.1,20.45Z"/>
    </g>
    <g>
      <path class="st2" d="M654.7,186.19h-17.5v-4.36h6.77v-16.85h-.32l-5.11,6.7-3.46-2.7,6.01-7.92h8.28v20.77h5.33v4.36Z"/>
      <path class="st2" d="M666.36,186.62c-1.99,0-3.69-.41-5.09-1.22-1.4-.82-2.48-1.97-3.22-3.47s-1.12-3.26-1.12-5.27c0-1.78.26-3.44.79-5,.53-1.56,1.23-3.01,2.11-4.34s1.84-2.53,2.9-3.58,2.12-1.94,3.2-2.66h7.45c-2.04,1.46-3.8,2.85-5.29,4.16s-2.69,2.64-3.62,4c-.92,1.36-1.55,2.84-1.89,4.45l.32.11c.29-.65.66-1.26,1.12-1.84.46-.58,1.04-1.04,1.76-1.4.72-.36,1.61-.54,2.66-.54,1.39,0,2.64.32,3.74.95,1.1.64,1.98,1.54,2.63,2.72.65,1.18.97,2.56.97,4.14,0,1.7-.39,3.22-1.17,4.55s-1.87,2.38-3.28,3.13c-1.4.76-3.07,1.13-4.99,1.13ZM666.36,182.41c.79,0,1.47-.15,2.03-.45.56-.3,1-.73,1.31-1.3.31-.56.47-1.25.47-2.07v-.65c0-.82-.16-1.51-.47-2.07-.31-.56-.75-1-1.31-1.3-.56-.3-1.24-.45-2.03-.45s-1.47.15-2.03.45c-.56.3-1,.73-1.31,1.3-.31.56-.47,1.25-.47,2.07v.65c0,.82.16,1.51.47,2.07.31.56.75,1,1.31,1.3.56.3,1.24.45,2.03.45Z"/>
      <path class="st2" d="M682.6,180.21c1.08,0,1.88.27,2.39.81.52.54.77,1.23.77,2.07v.72c0,1.46-.35,2.9-1.06,4.32-.71,1.42-1.64,2.57-2.79,3.46h-3.6c.84-.79,1.56-1.58,2.16-2.36.6-.78,1.06-1.65,1.37-2.61-.82-.14-1.42-.47-1.82-.99-.4-.52-.59-1.12-.59-1.82v-.72c0-.84.26-1.53.77-2.07.52-.54,1.31-.81,2.39-.81Z"/>
      <path class="st2" d="M695.27,171h2.34c1.34,0,2.32-.26,2.93-.77.61-.52.92-1.16.92-1.93v-.25c0-.91-.3-1.64-.9-2.2s-1.43-.83-2.48-.83-1.96.26-2.84.77c-.89.52-1.64,1.25-2.27,2.21l-3.38-3.17c.65-.84,1.37-1.57,2.16-2.2s1.72-1.12,2.77-1.48c1.06-.36,2.3-.54,3.74-.54,1.8,0,3.37.28,4.7.83,1.33.55,2.36,1.33,3.1,2.32.73,1,1.1,2.17,1.1,3.51,0,1.61-.47,2.89-1.42,3.85s-2.07,1.56-3.37,1.8v.22c1.01.17,1.9.51,2.68,1.03.78.52,1.4,1.19,1.85,2.03.46.84.68,1.84.68,2.99,0,1.49-.4,2.79-1.21,3.91-.8,1.12-1.92,1.98-3.35,2.59-1.43.61-3.09.92-4.99.92-1.7,0-3.14-.22-4.32-.67-1.18-.44-2.16-1.04-2.95-1.78s-1.46-1.54-2.02-2.38l4-3.1c.55,1.03,1.24,1.88,2.05,2.54.82.66,1.9.99,3.24.99,1.22,0,2.18-.31,2.86-.94.68-.62,1.03-1.45,1.03-2.48v-.22c0-1.03-.39-1.81-1.17-2.32-.78-.52-1.85-.77-3.22-.77h-2.27v-4.5Z"/>
      <path class="st2" d="M716.87,171h2.34c1.34,0,2.32-.26,2.93-.77.61-.52.92-1.16.92-1.93v-.25c0-.91-.3-1.64-.9-2.2s-1.43-.83-2.48-.83-1.96.26-2.84.77c-.89.52-1.64,1.25-2.27,2.21l-3.38-3.17c.65-.84,1.37-1.57,2.16-2.2s1.72-1.12,2.77-1.48c1.06-.36,2.3-.54,3.74-.54,1.8,0,3.37.28,4.7.83,1.33.55,2.36,1.33,3.1,2.32.73,1,1.1,2.17,1.1,3.51,0,1.61-.47,2.89-1.42,3.85s-2.07,1.56-3.37,1.8v.22c1.01.17,1.9.51,2.68,1.03.78.52,1.4,1.19,1.85,2.03.46.84.68,1.84.68,2.99,0,1.49-.4,2.79-1.21,3.91-.8,1.12-1.92,1.98-3.35,2.59-1.43.61-3.09.92-4.99.92-1.7,0-3.14-.22-4.32-.67-1.18-.44-2.16-1.04-2.95-1.78s-1.46-1.54-2.02-2.38l4-3.1c.55,1.03,1.24,1.88,2.05,2.54.82.66,1.9.99,3.24.99,1.22,0,2.18-.31,2.86-.94.68-.62,1.03-1.45,1.03-2.48v-.22c0-1.03-.39-1.81-1.17-2.32-.78-.52-1.85-.77-3.22-.77h-2.27v-4.5Z"/>
      <path class="st2" d="M750.17,161.06v4.72h-11.41l-.54,7.96h.29c.34-.79.72-1.49,1.15-2.09.43-.6.98-1.07,1.66-1.4.67-.34,1.54-.5,2.59-.5,1.44,0,2.74.32,3.91.95,1.16.64,2.09,1.55,2.79,2.74.7,1.19,1.04,2.62,1.04,4.3s-.37,3.23-1.12,4.57c-.74,1.34-1.84,2.4-3.28,3.17-1.44.77-3.19,1.15-5.26,1.15-1.61,0-2.99-.22-4.14-.67-1.15-.44-2.12-1.04-2.9-1.78s-1.42-1.54-1.93-2.38l3.92-3.1c.55.96,1.21,1.79,1.98,2.48.77.7,1.8,1.04,3.1,1.04s2.27-.37,2.93-1.12c.66-.74.99-1.73.99-2.95v-.29c0-1.15-.34-2.06-1.01-2.74s-1.6-1.01-2.77-1.01c-.96,0-1.76.2-2.41.59-.65.4-1.14.79-1.48,1.17l-4.43-.61.94-14.22h15.37Z"/>
    </g>
    <g>
      <path class="st3" d="M544.5,261.28c-.67,0-1.25-.13-1.73-.39-.48-.26-.89-.62-1.23-1.07l.74-.62c.3.39.62.69.98.89.36.2.78.31,1.27.31.6,0,1.06-.14,1.37-.43.32-.29.47-.67.47-1.15,0-.26-.05-.49-.16-.67-.1-.18-.27-.34-.5-.46-.23-.12-.53-.23-.89-.31l-.68-.16c-.5-.12-.93-.28-1.28-.47-.35-.19-.62-.44-.8-.74-.18-.3-.28-.67-.28-1.09,0-.5.12-.91.35-1.25.23-.34.56-.6.98-.77s.9-.26,1.45-.26c.63,0,1.17.12,1.63.35.45.23.83.57,1.15,1.02l-.76.55c-.22-.32-.5-.57-.83-.76-.33-.18-.74-.28-1.23-.28-.54,0-.96.12-1.27.35-.31.23-.46.57-.46,1.02,0,.26.06.48.17.66.12.18.29.32.52.44.23.12.52.21.88.29l.68.16c.54.12.99.28,1.33.49s.6.46.76.77.25.66.25,1.08c0,.51-.12.96-.35,1.33-.23.38-.56.67-.99.88s-.94.31-1.54.31Z"/>
      <path class="st3" d="M551.36,261.28c-.55,0-1.04-.13-1.46-.4-.42-.27-.75-.64-.98-1.13-.24-.48-.35-1.05-.35-1.71s.12-1.23.35-1.71c.24-.48.56-.86.98-1.13.42-.27.91-.4,1.46-.4s1.04.13,1.46.4c.42.27.75.64.98,1.13.24.48.35,1.05.35,1.71s-.12,1.23-.35,1.71c-.24.48-.56.86-.98,1.13-.42.27-.91.4-1.46.4ZM551.36,260.42c.52,0,.94-.16,1.27-.48.33-.32.49-.81.49-1.46v-.89c0-.66-.16-1.14-.49-1.46s-.75-.48-1.27-.48-.93.16-1.27.48c-.33.32-.5.81-.5,1.46v.89c0,.66.17,1.14.5,1.46.33.32.75.48,1.27.48Z"/>
      <path class="st3" d="M559.56,261.13v-1.01h-.05c-.12.3-.31.56-.57.8-.26.24-.65.35-1.17.35-.63,0-1.14-.21-1.52-.62s-.57-.99-.57-1.75v-3.97h.96v3.8c0,.55.12.97.36,1.25.24.28.59.42,1.06.42.26,0,.5-.04.73-.13.23-.08.41-.21.56-.39.14-.18.22-.4.22-.67v-4.28h.96v6.19h-.96Z"/>
      <path class="st3" d="M563.52,261.13h-.96v-6.19h.96v1.14h.06c.07-.2.18-.39.34-.56.15-.17.35-.31.59-.42.24-.11.53-.16.86-.16h.37v.96h-.56c-.34,0-.64.05-.89.14s-.44.21-.57.37c-.13.15-.2.33-.2.53v4.2Z"/>
      <path class="st3" d="M569.21,261.28c-.87,0-1.55-.29-2.03-.88-.48-.58-.73-1.37-.73-2.36s.24-1.78.73-2.36,1.16-.88,2.03-.88c.62,0,1.11.14,1.49.41.38.27.65.62.83,1.04l-.8.41c-.11-.32-.3-.57-.56-.74s-.58-.26-.95-.26c-.57,0-1,.17-1.29.52s-.44.79-.44,1.34v1.06c0,.54.15.98.44,1.33.29.35.72.53,1.29.53.39,0,.73-.09,1.01-.28.28-.18.5-.45.67-.8l.7.47c-.2.44-.5.79-.89,1.06-.4.27-.89.4-1.48.4Z"/>
      <path class="st3" d="M575.2,261.28c-.56,0-1.05-.13-1.46-.4-.42-.27-.74-.64-.97-1.13-.23-.48-.35-1.05-.35-1.71s.12-1.23.35-1.71c.23-.48.56-.86.97-1.13.42-.27.9-.4,1.46-.4s1.03.13,1.43.39c.4.26.71.62.92,1.07s.32.98.32,1.56v.46h-4.45v.29c0,.54.16.98.49,1.34.32.36.77.53,1.35.53.39,0,.73-.09,1.03-.28.29-.18.52-.45.68-.79l.68.49c-.2.42-.51.76-.94,1.02s-.93.4-1.51.4ZM575.2,255.6c-.34,0-.65.08-.92.24-.27.16-.48.38-.63.67-.15.28-.23.61-.23.97v.08h3.42v-.13c0-.37-.07-.69-.2-.96-.14-.27-.33-.48-.58-.64-.25-.15-.54-.23-.86-.23Z"/>
      <path class="st3" d="M580.19,256.34c-.25,0-.43-.07-.55-.2-.12-.13-.18-.3-.18-.5v-.16c0-.21.06-.38.18-.5s.3-.19.55-.19.44.06.56.19c.12.13.17.3.17.5v.16c0,.2-.06.37-.17.5-.12.13-.3.2-.56.2ZM580.19,261.28c-.25,0-.43-.07-.55-.2s-.18-.3-.18-.5v-.16c0-.21.06-.38.18-.5s.3-.19.55-.19.44.06.56.19c.12.13.17.3.17.5v.16c0,.2-.06.37-.17.5-.12.13-.3.2-.56.2Z"/>
      <path class="st3" d="M589.02,261.28c-.72,0-1.35-.17-1.88-.5s-.94-.82-1.24-1.46c-.29-.64-.44-1.43-.44-2.37s.15-1.73.44-2.37c.29-.64.7-1.13,1.24-1.46.53-.33,1.16-.5,1.88-.5s1.35.17,1.88.5c.53.33.94.82,1.24,1.46.29.64.44,1.43.44,2.37s-.15,1.73-.44,2.37c-.29.64-.7,1.13-1.24,1.46s-1.16.5-1.88.5ZM589.02,260.38c.49,0,.92-.11,1.28-.34.37-.23.66-.55.87-.95s.32-.89.32-1.44v-1.39c0-.55-.11-1.03-.32-1.45s-.5-.73-.87-.95c-.37-.22-.8-.34-1.28-.34s-.91.11-1.28.34c-.37.22-.67.54-.88.95-.21.41-.32.89-.32,1.45v1.39c0,.55.11,1.03.32,1.44.21.41.5.73.88.95.37.23.8.34,1.28.34Z"/>
      <path class="st3" d="M595.39,261.13h-1.01v-8.38h3.34c.5,0,.93.1,1.28.29.35.2.61.47.79.83.18.36.27.78.27,1.28s-.09.91-.27,1.27c-.18.36-.44.64-.79.83-.35.2-.77.29-1.28.29h-2.33v3.58ZM595.39,253.64v3.02h2.33c.26,0,.49-.05.68-.14.19-.09.33-.23.43-.41.1-.18.15-.4.15-.65v-.62c0-.26-.05-.47-.15-.65-.1-.18-.24-.32-.43-.41-.19-.09-.41-.14-.68-.14h-2.33Z"/>
      <path class="st3" d="M607.14,253.64h-2.66v7.49h-1.01v-7.49h-2.66v-.89h6.34v.89Z"/>
      <path class="st3" d="M613.61,261.13l-3.06-5.11-1.01-1.86h-.04v6.97h-.98v-8.38h1.16l3.06,5.11,1.01,1.86h.04v-6.97h.98v8.38h-1.16Z"/>
      <path class="st3" d="M616.86,262.94h-.86l3.13-10.69h.86l-3.13,10.69Z"/>
      <path class="st3" d="M623.77,261.28c-.67,0-1.25-.13-1.73-.39-.48-.26-.89-.62-1.23-1.07l.74-.62c.3.39.62.69.98.89.36.2.78.31,1.27.31.6,0,1.06-.14,1.37-.43.32-.29.47-.67.47-1.15,0-.26-.05-.49-.16-.67-.1-.18-.27-.34-.5-.46s-.53-.23-.89-.31l-.68-.16c-.5-.12-.93-.28-1.28-.47-.35-.19-.62-.44-.8-.74-.18-.3-.28-.67-.28-1.09,0-.5.12-.91.35-1.25.23-.34.56-.6.98-.77s.9-.26,1.45-.26c.63,0,1.17.12,1.63.35s.83.57,1.15,1.02l-.76.55c-.22-.32-.5-.57-.83-.76-.33-.18-.74-.28-1.23-.28-.54,0-.96.12-1.27.35-.31.23-.46.57-.46,1.02,0,.26.06.48.17.66.12.18.29.32.52.44s.52.21.88.29l.68.16c.54.12.99.28,1.33.49.34.21.6.46.76.77s.25.66.25,1.08c0,.51-.12.96-.35,1.33-.23.38-.56.67-.99.88-.43.21-.94.31-1.54.31Z"/>
      <path class="st3" d="M629.4,257.53v3.6h-1.01v-8.38h3.34c.49,0,.91.09,1.25.28.35.18.62.45.8.8.19.35.28.78.28,1.3,0,.61-.14,1.11-.43,1.51-.29.4-.7.66-1.25.79l1.92,3.7h-1.14l-1.81-3.6h-1.96ZM629.4,256.67h2.33c.26,0,.49-.05.68-.14.19-.09.33-.23.43-.41.1-.18.15-.4.15-.65v-.62c0-.26-.05-.47-.15-.65-.1-.18-.24-.32-.43-.41-.19-.09-.41-.14-.68-.14h-2.33v3.02Z"/>
      <path class="st3" d="M641.27,253.64h-2.66v7.49h-1.01v-7.49h-2.66v-.89h6.34v.89Z"/>
      <path class="st3" d="M643.66,257.53v3.6h-1.01v-8.38h3.34c.49,0,.91.09,1.25.28.35.18.62.45.8.8.19.35.28.78.28,1.3,0,.61-.14,1.11-.43,1.51-.29.4-.7.66-1.25.79l1.92,3.7h-1.14l-1.81-3.6h-1.96ZM643.66,256.67h2.33c.26,0,.49-.05.68-.14.19-.09.33-.23.43-.41.1-.18.15-.4.15-.65v-.62c0-.26-.05-.47-.15-.65-.1-.18-.24-.32-.43-.41-.19-.09-.41-.14-.68-.14h-2.33v3.02Z"/>
      <path class="st3" d="M659.46,261.13h-1.06l-.84-2.47h-3.38l-.84,2.47h-1.02l2.93-8.38h1.28l2.93,8.38ZM657.31,257.77l-1.06-3.04-.36-1.04h-.06l-.36,1.04-1.06,3.04h2.89Z"/>
      <path class="st3" d="M661.71,261.13h-.96v-6.19h.96v1.01h.05c.15-.35.37-.63.64-.84.28-.21.65-.31,1.11-.31.64,0,1.15.21,1.52.62s.56.99.56,1.75v3.97h-.96v-3.8c0-.55-.12-.97-.35-1.25-.24-.28-.59-.42-1.05-.42-.26,0-.5.04-.73.13-.23.08-.42.21-.56.39-.14.18-.22.4-.22.66v4.3Z"/>
      <path class="st3" d="M668.53,261.13h-.96v-6.19h.96v1.01h.05c.15-.35.37-.63.64-.84.28-.21.65-.31,1.11-.31.64,0,1.15.21,1.52.62s.56.99.56,1.75v3.97h-.96v-3.8c0-.55-.12-.97-.35-1.25-.24-.28-.59-.42-1.05-.42-.26,0-.5.04-.73.13-.23.08-.42.21-.56.39-.14.18-.22.4-.22.66v4.3Z"/>
      <path class="st3" d="M678.2,261.13v-1.01h-.05c-.12.3-.31.56-.57.8-.26.24-.65.35-1.17.35-.63,0-1.14-.21-1.52-.62s-.57-.99-.57-1.75v-3.97h.96v3.8c0,.55.12.97.36,1.25.24.28.59.42,1.06.42.26,0,.5-.04.73-.13.23-.08.41-.21.56-.39.14-.18.22-.4.22-.67v-4.28h.96v6.19h-.96Z"/>
      <path class="st3" d="M686.24,261.13h-.54c-.26,0-.46-.05-.62-.16-.16-.11-.28-.26-.35-.45-.07-.19-.11-.41-.11-.66v-.08l.37.35h-.42c-.13.38-.35.66-.67.86-.32.2-.69.29-1.12.29-.66,0-1.17-.17-1.53-.5-.36-.34-.55-.79-.55-1.37,0-.39.1-.72.29-.99.19-.27.48-.47.87-.61.39-.14.88-.21,1.48-.21h1.22v-.61c0-.44-.12-.78-.36-1.01-.24-.23-.61-.35-1.1-.35-.37,0-.68.08-.94.25-.26.17-.47.39-.64.67l-.58-.54c.17-.33.44-.61.8-.85.37-.24.83-.36,1.39-.36.74,0,1.33.18,1.75.55s.63.88.63,1.54v3.41h.71v.84ZM684.57,258.31h-1.27c-.54,0-.94.08-1.2.24s-.38.39-.38.7v.25c0,.3.11.54.34.71.22.17.52.25.89.25.32,0,.6-.05.85-.15.24-.1.44-.24.58-.41.14-.17.21-.36.21-.57v-1.02Z"/>
      <path class="st3" d="M689.48,261.13h-.85c-.33,0-.58-.09-.76-.28-.18-.19-.26-.43-.26-.71v-7.88h.96v8.04h.91v.84Z"/>
      <path class="st3" d="M693.8,261.13v-8.38h2.81c.7,0,1.3.15,1.82.46.52.31.91.77,1.19,1.39.28.62.42,1.4.42,2.33s-.14,1.71-.42,2.33c-.28.62-.68,1.08-1.19,1.39-.52.31-1.12.46-1.82.46h-2.81ZM694.81,260.24h1.8c.46,0,.87-.1,1.22-.31.35-.21.63-.51.83-.89.2-.39.3-.86.3-1.41v-1.37c0-.55-.1-1.02-.3-1.42-.2-.39-.48-.69-.83-.89-.35-.2-.76-.31-1.22-.31h-1.8v6.6Z"/>
      <path class="st3" d="M706.8,261.13h-.54c-.26,0-.46-.05-.62-.16-.16-.11-.28-.26-.35-.45-.07-.19-.11-.41-.11-.66v-.08l.37.35h-.42c-.13.38-.35.66-.67.86-.32.2-.69.29-1.12.29-.66,0-1.17-.17-1.53-.5-.36-.34-.55-.79-.55-1.37,0-.39.1-.72.29-.99.19-.27.48-.47.87-.61.39-.14.88-.21,1.48-.21h1.22v-.61c0-.44-.12-.78-.36-1.01-.24-.23-.61-.35-1.1-.35-.37,0-.68.08-.94.25-.26.17-.47.39-.64.67l-.58-.54c.17-.33.44-.61.8-.85.37-.24.83-.36,1.39-.36.74,0,1.33.18,1.75.55s.63.88.63,1.54v3.41h.71v.84ZM705.13,258.31h-1.27c-.54,0-.94.08-1.2.24s-.38.39-.38.7v.25c0,.3.11.54.34.71.22.17.52.25.89.25.32,0,.6-.05.85-.15.24-.1.44-.24.58-.41.14-.17.21-.36.21-.57v-1.02Z"/>
      <path class="st3" d="M710.73,261.13h-1.2c-.33,0-.58-.1-.76-.29-.18-.19-.26-.44-.26-.73v-4.33h-1.02v-.84h.58c.21,0,.35-.04.43-.13.08-.08.11-.23.11-.44v-1.15h.86v1.72h1.36v.84h-1.36v4.51h1.26v.84Z"/>
      <path class="st3" d="M717.42,261.13h-.54c-.26,0-.46-.05-.62-.16-.16-.11-.28-.26-.35-.45-.07-.19-.11-.41-.11-.66v-.08l.37.35h-.42c-.13.38-.35.66-.67.86-.32.2-.69.29-1.12.29-.66,0-1.17-.17-1.53-.5-.36-.34-.55-.79-.55-1.37,0-.39.1-.72.29-.99.19-.27.48-.47.87-.61.39-.14.88-.21,1.48-.21h1.22v-.61c0-.44-.12-.78-.36-1.01-.24-.23-.61-.35-1.1-.35-.37,0-.68.08-.94.25-.26.17-.47.39-.64.67l-.58-.54c.17-.33.44-.61.8-.85.37-.24.83-.36,1.39-.36.74,0,1.33.18,1.75.55s.63.88.63,1.54v3.41h.71v.84ZM715.75,258.31h-1.27c-.54,0-.94.08-1.2.24s-.38.39-.38.7v.25c0,.3.11.54.34.71.22.17.52.25.89.25.32,0,.6-.05.85-.15.24-.1.44-.24.58-.41.14-.17.21-.36.21-.57v-1.02Z"/>
      <path class="st3" d="M722.72,257.53v3.6h-1.01v-8.38h3.34c.49,0,.91.09,1.25.28.35.18.62.45.8.8.19.35.28.78.28,1.3,0,.61-.14,1.11-.43,1.51-.29.4-.7.66-1.25.79l1.92,3.7h-1.14l-1.81-3.6h-1.96ZM722.72,256.67h2.33c.26,0,.49-.05.68-.14.19-.09.33-.23.43-.41.1-.18.15-.4.15-.65v-.62c0-.26-.05-.47-.15-.65-.1-.18-.24-.32-.43-.41-.19-.09-.41-.14-.68-.14h-2.33v3.02Z"/>
      <path class="st3" d="M731.45,261.28c-.56,0-1.05-.13-1.46-.4-.42-.27-.74-.64-.97-1.13-.23-.48-.35-1.05-.35-1.71s.12-1.23.35-1.71c.23-.48.56-.86.97-1.13.42-.27.9-.4,1.46-.4s1.03.13,1.43.39c.4.26.71.62.92,1.07s.32.98.32,1.56v.46h-4.45v.29c0,.54.16.98.49,1.34.32.36.77.53,1.35.53.39,0,.73-.09,1.03-.28.29-.18.52-.45.68-.79l.68.49c-.2.42-.51.76-.94,1.02s-.93.4-1.51.4ZM731.45,255.6c-.34,0-.65.08-.92.24-.27.16-.48.38-.63.67-.15.28-.23.61-.23.97v.08h3.42v-.13c0-.37-.07-.69-.2-.96-.14-.27-.33-.48-.58-.64-.25-.15-.54-.23-.86-.23Z"/>
      <path class="st3" d="M735.71,263.53v-8.59h.96v1.01h.05c.16-.39.4-.68.71-.87.31-.19.68-.28,1.1-.28.52,0,.97.13,1.34.4.38.26.67.64.87,1.12.2.48.31,1.06.31,1.72s-.1,1.23-.31,1.72c-.2.49-.49.86-.87,1.13s-.82.4-1.34.4c-.42,0-.79-.1-1.09-.29-.3-.19-.54-.48-.73-.86h-.05v3.41h-.96ZM738.26,260.41c.54,0,.97-.17,1.28-.51.31-.34.47-.79.47-1.34v-1.06c0-.55-.16-1-.47-1.34-.31-.34-.74-.51-1.28-.51-.29,0-.55.05-.8.16-.24.1-.44.24-.58.42-.14.18-.22.38-.22.61v2.3c0,.26.07.49.22.68.14.19.34.33.58.43.24.1.51.15.8.15Z"/>
      <path class="st3" d="M745.01,261.28c-.55,0-1.04-.13-1.46-.4-.42-.27-.75-.64-.98-1.13-.24-.48-.35-1.05-.35-1.71s.12-1.23.35-1.71c.24-.48.56-.86.98-1.13.42-.27.91-.4,1.46-.4s1.04.13,1.46.4c.42.27.75.64.98,1.13.24.48.35,1.05.35,1.71s-.12,1.23-.35,1.71c-.24.48-.56.86-.98,1.13-.42.27-.91.4-1.46.4ZM745.01,260.42c.52,0,.94-.16,1.27-.48.33-.32.49-.81.49-1.46v-.89c0-.66-.16-1.14-.49-1.46s-.75-.48-1.27-.48-.93.16-1.27.48c-.33.32-.5.81-.5,1.46v.89c0,.66.17,1.14.5,1.46.33.32.75.48,1.27.48Z"/>
      <path class="st3" d="M750.35,261.13h-.96v-6.19h.96v1.14h.06c.07-.2.18-.39.34-.56.15-.17.35-.31.59-.42.24-.11.53-.16.86-.16h.37v.96h-.56c-.34,0-.64.05-.89.14s-.44.21-.57.37c-.13.15-.2.33-.2.53v4.2Z"/>
      <path class="st3" d="M756.41,261.13h-1.2c-.33,0-.58-.1-.76-.29-.18-.19-.26-.44-.26-.73v-4.33h-1.02v-.84h.58c.21,0,.35-.04.43-.13.08-.08.11-.23.11-.44v-1.15h.86v1.72h1.36v.84h-1.36v4.51h1.26v.84Z"/>
    </g>
  </g>
</svg>